<?xml version="1.0" standalone="no"?>
<!DOCTYPE svg PUBLIC "-//W3C//DTD SVG 20010904//EN"
 "http://www.w3.org/TR/2001/REC-SVG-20010904/DTD/svg10.dtd">
<svg version="1.0" xmlns="http://www.w3.org/2000/svg"
 width="1280.000000pt" height="1280.000000pt" viewBox="0 0 1280.000000 1280.000000"
 preserveAspectRatio="xMidYMid meet">
<metadata>
Created by potrace 1.15, written by Peter Selinger 2001-2017
</metadata>
<g transform="translate(0.000000,1280.000000) scale(0.100000,-0.100000)"
fill="#fff" stroke="none">
<path d="M6060 9189 c-397 -20 -415 -20 -400 -10 10 7 -12 8 -70 5 -47 -3
-290 -9 -540 -14 -250 -6 -507 -14 -570 -19 -63 -5 -320 -45 -570 -89 -250
-44 -480 -83 -510 -87 -30 -4 -65 -15 -78 -23 -23 -15 -23 -16 -6 -23 15 -6
13 -8 -11 -9 -27 -1 -65 -19 -65 -32 0 -2 66 9 148 24 110 22 188 30 312 34
107 3 160 2 150 -5 -8 -5 -76 -27 -150 -49 -118 -35 -160 -42 -335 -57 -169
-14 -203 -20 -220 -36 -19 -19 -19 -19 40 -20 l60 -2 -72 -11 c-67 -10 -75
-14 -97 -47 -13 -19 -35 -58 -49 -87 l-25 -52 21 0 c12 0 99 12 192 27 160 25
194 26 595 29 l425 3 -70 -19 c-38 -11 -167 -36 -285 -55 -118 -20 -255 -42
-304 -50 -63 -11 -168 -15 -353 -15 -227 0 -263 -2 -263 -15 0 -13 24 -15 153
-16 l152 -1 -80 -13 c-44 -8 -116 -14 -161 -14 l-80 -1 -18 -55 c-9 -30 -15
-59 -11 -64 3 -5 1 -11 -5 -13 -5 -1 -12 -17 -16 -35 l-6 -32 133 4 c147 5
136 -5 -31 -26 -96 -12 -120 -21 -120 -44 0 -9 18 -9 81 2 115 20 118 11 5
-16 -94 -22 -96 -23 -96 -52 l0 -29 323 -1 322 -1 -140 -29 c-108 -22 -420
-58 -517 -59 -5 0 -8 -4 -8 -10 0 -5 26 -11 58 -11 l57 -1 -53 -12 c-31 -6
-57 -18 -63 -28 -8 -14 -6 -18 6 -18 9 0 169 23 357 50 188 28 351 50 362 48
12 -2 -80 -18 -204 -36 -450 -65 -515 -75 -524 -83 -5 -5 -7 -11 -4 -14 2 -3
112 11 244 30 952 141 919 137 1315 165 81 5 207 10 280 9 l134 -1 -495 -84
c-272 -46 -601 -97 -730 -114 -129 -17 -313 -41 -408 -55 -95 -14 -212 -25
-261 -25 l-88 0 -2 -50 c-1 -27 3 -50 8 -50 5 0 152 18 326 40 314 40 320 40
658 40 187 0 338 -2 336 -5 -3 -2 -83 -28 -179 -57 l-175 -52 -492 -4 c-301
-2 -493 -7 -493 -12 0 -6 169 -11 433 -12 l432 -3 -83 -23 c-122 -34 -280 -50
-551 -58 l-241 -7 0 -40 0 -40 68 7 c158 16 180 14 62 -5 -69 -12 -128 -26
-132 -32 -4 -7 -8 -50 -8 -97 -1 -47 -3 -120 -6 -163 -5 -73 -4 -78 13 -73 10
2 45 7 78 10 59 5 59 5 -17 -11 l-78 -15 0 -74 c0 -41 4 -74 8 -74 11 0 186
38 252 55 62 16 550 89 556 83 2 -2 -85 -21 -194 -41 -588 -112 -622 -119
-622 -134 0 -9 6 -12 18 -9 9 3 267 53 572 111 582 111 1133 198 1367 215 76
5 183 15 238 21 103 11 720 106 743 114 8 3 12 29 12 80 l0 75 -32 0 c-17 0
-127 -9 -245 -21 -118 -11 -219 -19 -225 -17 -6 2 90 19 213 37 315 45 289 39
289 68 l0 26 -102 -6 c-112 -7 -94 6 25 18 46 4 70 12 74 21 3 8 3 18 -1 21
-3 3 -52 -2 -108 -11 -57 -10 -114 -20 -128 -22 l-25 -4 24 10 c13 6 69 18
125 27 55 8 106 22 112 29 6 8 15 9 24 4 7 -4 27 -7 44 -5 17 1 23 0 14 -2
-28 -7 -21 -20 18 -33 28 -9 62 -10 146 -1 61 7 112 10 115 8 4 -5 -135 -27
-167 -27 -31 0 -24 -15 15 -33 28 -13 66 -17 168 -18 l132 -1 -100 -17 -100
-16 110 -59 c129 -70 74 -67 540 -31 182 13 393 29 470 35 77 6 158 13 180 17
22 3 38 3 35 0 -15 -16 -390 -87 -754 -142 -94 -14 -172 -27 -174 -29 -2 -3 6
-9 17 -15 15 -8 40 -8 91 0 90 14 102 6 18 -11 l-63 -12 72 -36 71 -35 134 18
c134 18 341 52 607 100 80 14 149 24 154 22 6 -2 -55 -20 -134 -40 -95 -25
-232 -49 -404 -72 -143 -19 -276 -37 -295 -41 -32 -6 -33 -7 -12 -15 14 -5 76
-1 168 12 81 11 148 18 151 15 4 -4 -144 -39 -222 -52 l-40 -6 50 -26 50 -25
180 12 c181 11 352 15 344 6 -3 -2 -101 -16 -219 -30 -118 -14 -216 -28 -218
-30 -2 -2 28 -19 66 -38 39 -19 100 -52 136 -72 l65 -36 68 20 c61 18 659 102
708 100 65 -3 -140 -43 -399 -78 -165 -23 -312 -44 -326 -47 -21 -5 -16 -10
50 -46 l75 -40 105 12 c58 6 130 13 160 15 l55 4 -65 -14 c-36 -7 -103 -17
-149 -21 l-84 -7 58 -29 58 -30 112 17 c144 22 182 15 48 -8 -57 -10 -105 -22
-107 -26 -3 -4 23 -22 57 -40 98 -52 98 -52 13 -96 -41 -22 -73 -41 -72 -42 1
-1 141 20 311 46 304 48 612 76 574 52 -17 -11 -65 -20 -384 -71 -723 -117
-665 -105 -776 -161 -56 -27 -99 -52 -97 -54 2 -2 33 0 68 5 36 5 76 9 90 9
14 -1 -27 -9 -91 -19 -111 -17 -124 -22 -258 -91 -106 -55 -137 -75 -124 -81
12 -4 7 -7 -18 -7 -21 -1 -52 -11 -73 -26 -20 -14 -41 -25 -47 -25 -18 0 -74
-33 -62 -37 6 -2 140 12 298 32 158 20 289 34 292 32 7 -7 -103 -24 -382 -57
-219 -26 -341 -50 -324 -64 2 -2 101 10 219 25 118 16 224 28 235 26 11 -1
-108 -24 -265 -50 -234 -39 -296 -53 -345 -77 -114 -55 -108 -59 56 -29 136
25 602 89 646 89 53 0 -36 -15 -412 -69 -360 -53 -500 -80 -484 -95 2 -2 27 0
54 4 28 5 66 9 85 9 58 0 7 -15 -100 -28 -85 -11 -108 -19 -225 -78 -71 -36
-166 -85 -211 -109 -45 -24 -85 -44 -90 -44 -5 0 -9 35 -9 77 0 47 -4 77 -10
76 -92 -14 -348 -43 -352 -40 -2 3 33 10 79 16 270 39 288 43 288 62 0 11 -7
19 -17 19 -10 0 -171 -27 -357 -60 -187 -33 -347 -60 -355 -59 -36 2 173 44
439 88 l285 47 3 30 3 31 -108 -5 c-147 -6 -169 1 -48 16 55 7 112 15 127 18
l27 5 0 195 c0 133 -4 194 -11 194 -6 0 -101 -11 -211 -25 -110 -14 -207 -24
-216 -23 -14 3 74 18 367 60 l72 10 -1 155 -1 155 -32 -6 c-112 -21 -655 -82
-646 -73 3 3 145 29 315 56 396 65 367 58 363 84 -2 12 -10 22 -18 21 -220
-14 -241 -11 -75 10 l90 11 3 48 c3 41 1 47 -16 47 -11 0 -111 -14 -223 -31
-275 -41 -418 -59 -448 -58 -35 2 -3 7 361 64 169 27 313 52 320 56 26 16 -3
20 -69 10 -37 -6 -167 -27 -287 -46 -121 -19 -221 -34 -222 -32 -10 10 376
120 466 134 109 16 136 27 110 43 -10 7 -11 10 -2 10 11 0 18 51 7 61 -2 3
-100 -7 -217 -23 -332 -43 -346 -33 -23 16 94 15 187 29 208 32 33 5 37 9 37
35 0 16 -4 29 -10 29 -8 0 -774 -95 -1498 -186 -112 -14 -208 -24 -214 -22 -5
2 185 30 424 62 369 49 1162 163 1266 181 19 4 32 12 32 21 0 12 -9 14 -42 9
-24 -3 -196 -25 -383 -49 -187 -25 -497 -65 -690 -90 -1427 -187 -1807 -236
-1820 -236 -11 0 -15 -11 -15 -38 l0 -38 108 13 c963 118 1107 133 702 73
-223 -33 -529 -72 -757 -97 -48 -5 -53 -8 -53 -31 0 -29 -24 -30 249 13 90 14
176 25 190 23 14 -2 -77 -19 -204 -38 -219 -34 -230 -37 -233 -58 -3 -21 0
-23 30 -17 364 62 1753 254 1763 243 6 -6 -904 -218 -980 -229 -38 -6 -236
-22 -440 -37 -367 -27 -370 -27 -373 -49 -3 -21 0 -23 48 -23 28 0 132 7 231
16 99 8 187 14 196 12 9 -2 -95 -25 -230 -52 l-247 -49 0 -48 c0 -32 4 -49 12
-49 9 0 9 -3 0 -12 -21 -21 -13 -28 36 -29 l47 -1 -47 -10 c-56 -12 -62 -25
-15 -31 l32 -4 -32 -1 -33 -2 0 -79 c0 -67 3 -80 18 -84 16 -4 16 -5 0 -6 -10
0 -18 -8 -18 -16 0 -8 1 -15 3 -15 1 0 67 9 146 20 79 11 146 19 148 16 2 -2
-11 -6 -29 -9 -18 -4 -87 -16 -152 -28 l-119 -22 7 -115 c3 -64 8 -117 10
-120 3 -2 35 1 73 7 107 16 173 23 173 18 0 -4 -91 -22 -217 -43 -31 -5 -33
-7 -33 -49 0 -24 4 -46 9 -50 5 -3 85 4 177 15 92 11 169 19 171 16 12 -12
-79 -29 -206 -39 l-143 -11 6 -86 c3 -47 6 -95 6 -107 0 -18 7 -22 38 -25 l37
-4 -33 -9 c-17 -6 -32 -13 -32 -17 0 -5 0 -32 0 -60 0 -83 0 -83 128 -64 115
17 404 22 366 6 -25 -10 -253 -56 -349 -70 -143 -21 -131 -15 -127 -61 4 -37
6 -40 31 -35 75 15 243 37 247 33 3 -2 -46 -12 -108 -21 -178 -27 -169 -23
-162 -54 4 -15 8 -29 10 -31 2 -2 43 -3 91 -3 96 1 83 -10 -26 -23 -55 -6 -61
-9 -61 -30 0 -13 4 -35 9 -48 l9 -24 89 13 c95 13 289 23 270 13 -7 -3 -88
-19 -182 -34 -93 -15 -171 -28 -172 -29 -1 -1 2 -19 8 -39 l10 -36 67 4 67 4
-66 -12 -66 -12 10 -30 c5 -16 11 -31 12 -33 1 -1 64 7 139 18 130 19 204 25
195 16 -4 -4 -154 -26 -276 -41 -29 -4 -53 -11 -53 -16 0 -6 14 -46 32 -90 29
-75 33 -80 57 -75 82 16 303 47 313 44 6 -2 -63 -17 -153 -32 -90 -16 -167
-30 -172 -33 -7 -4 35 -86 59 -112 10 -11 33 -12 139 -2 70 7 129 10 131 8 3
-2 -48 -12 -113 -22 -65 -10 -122 -20 -126 -22 -5 -3 0 -14 10 -25 17 -20 26
-20 158 -14 93 4 135 3 125 -4 -8 -5 -55 -10 -105 -11 -49 -1 -103 -4 -120 -8
l-29 -6 27 -22 c25 -19 37 -21 130 -18 99 4 100 4 37 -6 -36 -6 -76 -13 -90
-15 l-25 -6 35 -29 c60 -49 97 -62 157 -55 33 4 53 2 53 -4 0 -5 -15 -10 -34
-10 -19 0 -37 -4 -41 -9 -12 -20 38 -21 152 -2 98 17 175 20 450 23 183 2 329
0 325 -3 -17 -14 -499 -74 -637 -79 l-150 -5 70 -19 c51 -15 117 -21 245 -26
139 -4 166 -8 131 -14 -70 -14 -24 -24 141 -32 122 -5 162 -3 273 16 112 19
186 24 535 30 223 4 491 15 595 23 105 9 255 21 335 27 80 6 297 22 484 36
186 14 340 23 342 21 3 -2 -19 -7 -48 -11 -111 -14 -1195 -167 -1243 -175
l-50 -9 74 -1 c45 -1 345 37 785 100 965 136 905 129 1120 129 104 0 187 -2
184 -5 -7 -7 -1000 -148 -1383 -196 l-310 -38 300 3 c362 5 799 29 1029 57 92
11 170 19 172 16 2 -2 -99 -20 -224 -41 -125 -21 -229 -40 -232 -43 -3 -3 36
-3 85 0 104 8 309 42 720 122 750 146 961 176 1210 174 l120 -1 -150 -18
c-166 -20 -462 -73 -540 -95 -27 -9 -198 -36 -380 -60 -181 -25 -431 -60 -555
-78 l-225 -32 149 -3 c137 -2 277 10 586 53 38 6 42 8 -45 -30 l-30 -14 26 0
c15 -1 55 8 90 19 175 54 282 67 894 115 110 8 209 18 220 20 11 3 139 10 285
15 146 6 273 13 283 16 43 13 8 19 -105 17 l-123 -2 130 24 c72 14 145 25 164
25 21 0 47 10 69 27 32 24 33 27 16 34 -16 6 -14 8 10 8 34 1 114 80 163 163
49 81 51 89 17 83 -146 -27 -403 -57 -509 -60 -109 -3 -120 -2 -65 5 36 5 105
12 153 16 60 4 87 10 84 17 -2 8 -41 13 -110 15 -60 1 -107 7 -107 12 0 6 -10
10 -22 10 -12 0 -18 3 -14 8 4 4 150 9 323 12 238 4 317 8 320 17 4 10 -40 13
-184 15 l-188 3 115 14 c63 8 153 17 199 20 54 4 86 11 89 19 3 9 -18 12 -80
13 l-83 2 87 11 c48 7 89 14 92 16 2 3 7 17 11 32 l7 28 -203 2 -204 3 195 33
c242 42 240 41 240 58 0 17 9 17 -134 -2 -65 -8 -120 -13 -123 -11 -6 7 76 25
175 38 84 12 93 15 98 36 4 13 4 26 1 29 -3 3 -29 -2 -58 -10 -44 -13 -110
-16 -388 -15 l-336 1 207 28 c116 16 293 32 400 37 l193 8 9 48 c4 26 6 50 4
53 -4 4 -298 -25 -423 -41 -28 -4 -35 -2 -25 4 8 6 11 13 7 18 -4 4 -108 6
-230 5 -146 -1 -215 2 -202 8 11 5 101 23 201 40 157 26 271 39 607 66 53 4
77 10 77 19 0 9 -17 12 -67 9 -77 -4 -67 2 20 11 31 4 57 11 57 17 0 15 -109
4 -315 -32 -94 -16 -181 -29 -195 -29 -37 2 141 35 334 64 93 13 170 26 172
27 1 2 6 27 10 56 l7 52 -224 1 c-123 1 -217 3 -209 5 8 2 107 13 219 24 113
11 209 24 215 30 7 7 -4 10 -34 11 l-45 2 40 6 c34 5 40 10 43 34 2 15 0 27
-4 27 -5 0 -62 -7 -129 -15 -149 -20 -417 -18 -372 2 18 8 27 19 25 30 -3 15
16 20 147 35 83 10 194 21 248 24 89 5 97 8 97 26 0 19 -4 20 -57 14 -32 -3
-94 -8 -138 -11 l-80 -5 137 32 c113 27 138 36 142 52 3 11 4 22 2 23 -2 2
-146 -10 -321 -27 -438 -42 -453 -40 -100 14 127 19 274 40 328 47 74 9 97 15
97 26 0 12 -10 14 -52 10 -29 -4 -111 -8 -183 -11 l-130 -5 80 13 c44 7 126
19 183 26 l102 12 1 32 c0 17 2 44 4 60 4 28 4 28 -41 22 -103 -14 -133 -14
-59 0 105 20 105 20 105 44 0 19 -4 20 -112 15 -215 -10 -781 -26 -784 -22 -2
2 40 11 94 20 106 18 269 32 591 50 139 8 206 16 208 24 2 6 -8 13 -24 16
l-28 4 28 2 c41 2 33 21 -10 22 l-38 2 35 6 c31 5 35 10 38 39 4 36 6 36 -88
22 -36 -5 -186 -23 -335 -39 -697 -78 -919 -102 -934 -99 -20 4 1304 198 1351
198 4 0 8 14 8 31 0 30 -2 31 -32 25 -18 -3 -188 -26 -378 -50 -1002 -131
-1364 -176 -1374 -173 -6 2 9 6 34 10 62 9 477 69 765 112 132 19 299 44 370
55 72 10 229 28 350 40 276 27 265 25 265 55 l0 25 -242 1 c-134 0 -234 4
-223 8 36 14 267 50 368 56 l97 7 0 44 0 43 -142 4 -143 3 143 2 c119 2 142 4
142 17 0 11 -13 15 -52 16 l-53 1 50 11 c41 10 51 16 53 36 3 20 1 22 -25 17
-76 -15 -1315 -148 -1321 -141 -3 3 3 5 14 5 10 0 152 20 314 44 162 24 458
68 658 97 260 38 362 57 362 66 0 7 -8 13 -18 13 -16 0 -344 -48 -1002 -145
-91 -13 -272 -40 -403 -60 -131 -19 -255 -35 -275 -34 l-37 1 35 9 c19 6 407
63 862 128 456 65 831 121 835 125 4 4 1 11 -7 16 -10 7 -11 10 -2 10 6 0 12
7 12 16 0 12 -7 14 -27 10 -63 -12 -374 -47 -390 -44 -10 2 59 16 152 32 254
42 265 44 265 67 0 13 -7 19 -23 19 -50 0 -827 -112 -912 -132 -62 -14 -147
-23 -270 -28 -99 -3 -181 -6 -183 -4 -2 1 18 9 45 18 57 18 121 29 349 56 94
11 209 26 255 34 74 13 401 63 649 99 76 11 85 15 88 35 3 21 0 22 -35 17 -54
-8 -509 -79 -768 -120 -120 -19 -220 -33 -222 -31 -2 1 51 17 117 34 79 21
245 49 487 82 203 28 380 53 396 56 28 6 38 24 13 24 -14 0 -507 -66 -557 -75
-22 -3 -26 -1 -22 15 6 22 19 24 356 71 l237 33 0 28 c0 24 -3 28 -22 23 -48
-11 -303 -54 -306 -51 -1 2 21 14 50 26 32 14 97 28 163 36 61 7 111 13 113
14 1 0 2 5 2 11 0 7 -29 8 -92 3 -111 -8 -112 4 -2 17 81 9 106 21 87 40 -8 8
-55 5 -172 -11 -224 -30 -234 -21 -13 14 161 26 182 31 182 48 0 17 -7 18
-112 12 -62 -3 -187 -12 -278 -19 -90 -8 -166 -13 -167 -11 -6 5 397 76 471
83 42 3 79 10 82 15 3 5 3 25 -1 45 l-6 35 -57 -6 c-238 -25 -818 -76 -831
-74 -9 2 188 26 437 53 333 37 452 53 452 62 0 7 -1 13 -3 13 -2 0 -264 -29
-582 -65 -319 -35 -580 -63 -582 -61 -2 1 133 30 299 64 167 34 428 88 581
119 l277 57 0 28 c0 15 -3 28 -7 28 -5 0 -53 -7 -108 -15 -60 -9 -168 -14
-270 -13 -204 1 -198 2 115 23 263 18 279 20 263 36 -6 6 -75 4 -202 -6 -107
-9 -196 -13 -199 -10 -3 3 -1 5 4 5 5 0 79 9 164 20 85 11 172 20 193 20 35 0
37 2 37 31 l0 31 -72 -6 -73 -5 65 14 c67 16 102 35 63 35 -12 0 -122 -17
-245 -39 -123 -21 -277 -44 -343 -50 -127 -13 -267 -28 -325 -37 -26 -4 -31
-3 -19 5 9 6 106 22 215 36 212 28 651 91 697 101 30 6 37 24 9 24 -10 0 -119
-15 -243 -34 -428 -65 -437 -61 -44 19 259 53 307 66 293 80 -2 3 -236 -42
-518 -100 -282 -58 -518 -104 -524 -102 -40 13 453 177 534 177 14 0 37 6 52
14 17 9 96 18 225 26 208 12 233 15 233 31 0 6 -41 8 -112 4 -130 -6 -130 -3
5 20 l97 17 0 31 c0 61 -4 62 -151 40 -74 -12 -136 -19 -137 -18 -12 11 68 35
144 45 134 16 132 16 126 45 -2 14 -8 28 -13 30 -4 3 -6 11 -3 19 3 7 0 25 -5
39 -10 25 -15 27 -73 28 l-63 1 60 10 c33 5 61 11 62 12 1 1 -4 22 -11 46
l-14 45 -53 -2 -54 -2 44 12 c49 14 66 36 29 38 -17 1 -18 3 -5 6 20 5 20 4 7
39 l-11 27 -82 -6 c-83 -6 -68 5 26 18 50 7 54 11 34 39 -12 17 -19 17 -88 6
-42 -7 -84 -10 -95 -8 -10 2 23 10 74 17 58 9 91 18 89 25 -5 13 -17 12 -221
-20 -87 -14 -160 -23 -162 -21 -9 9 108 46 229 72 88 19 125 31 117 39 -14 14
-243 -37 -350 -79 -77 -30 -98 -34 -220 -39 -74 -3 -223 -17 -330 -31 -145
-18 -238 -25 -365 -24 l-170 0 170 60 c184 64 236 74 953 170 133 18 242 36
242 39 0 3 -15 21 -34 39 l-34 33 -188 -36 c-188 -36 -399 -67 -438 -65 -37 2
286 77 359 84 75 7 165 31 165 45 0 4 12 11 27 15 22 5 25 8 12 15 -9 6 -39 4
-75 -5 -66 -15 -236 -37 -241 -31 -8 8 63 25 167 41 57 9 106 18 108 19 6 7
-109 78 -159 98 l-51 21 -266 -31 c-335 -40 -399 -46 -391 -38 7 7 310 49 509
70 126 14 127 11 -13 44 -62 15 -160 15 -447 -3 -129 -7 -236 -13 -237 -11 -1
1 46 13 105 26 59 12 111 27 116 31 20 18 -139 8 -326 -21 -106 -16 -267 -41
-358 -54 -189 -29 -320 -41 -615 -56 -115 -5 -246 -13 -290 -16 -44 -4 -78 -4
-75 -1 3 3 73 15 155 27 83 12 177 28 210 35 33 8 175 28 315 45 140 17 288
35 328 40 40 6 144 10 229 10 86 0 154 2 152 5 -11 10 -563 27 -872 26 -229 0
-326 3 -321 10 4 8 -15 9 -62 4 -111 -10 -543 -14 -509 -5 21 6 2 8 -62 6 -54
-1 -89 2 -86 7 6 10 -129 1 -211 -14 -27 -5 -76 -8 -110 -8 -33 1 -47 4 -31 6
17 3 34 8 39 13 9 9 -89 8 -294 -1z m578 -16 c-10 -2 -26 -2 -35 0 -10 3 -2 5
17 5 19 0 27 -2 18 -5z m-1373 -38 c-5 -3 -170 -39 -365 -81 l-355 -77 -215
-3 c-122 -1 -202 1 -185 6 17 4 55 8 86 9 72 1 119 11 119 24 0 13 -272 3
-535 -19 -103 -8 -189 -14 -190 -12 -2 2 193 38 433 80 l437 76 390 0 c215 0
386 -1 380 -3z m235 -25 c-85 -16 -156 -28 -158 -26 -10 11 183 54 243 54 67
0 62 -1 -85 -28z m323 23 c-7 -2 -19 -2 -25 0 -7 3 -2 5 12 5 14 0 19 -2 13
-5z m152 -29 c-115 -19 -217 -33 -225 -31 -25 4 332 65 385 65 28 0 -43 -15
-160 -34z m150 -24 c-170 -32 -358 -70 -417 -84 -88 -21 -132 -26 -240 -26
-72 0 -129 2 -126 5 2 3 180 32 394 66 214 33 439 69 499 79 252 41 177 14
-110 -40z m945 33 c-76 -24 -156 -35 -775 -103 -305 -34 -565 -48 -529 -29 11
6 198 44 415 84 l394 73 285 0 285 0 -75 -25z m355 20 c-39 -7 -270 -30 -274
-27 -2 1 19 9 45 18 31 9 87 14 149 14 55 0 91 -2 80 -5z m-2046 -7 c-9 -10
-400 -106 -527 -130 -119 -24 -220 -34 -182 -19 21 9 670 150 694 152 11 0 17
-1 15 -3z m286 -22 c-286 -58 -773 -139 -695 -117 35 10 767 141 790 141 14 0
-29 -11 -95 -24z m2010 -5 c-28 -8 -577 -80 -607 -79 -7 1 7 11 32 24 49 26
152 42 340 55 169 12 273 12 235 0z m822 -25 c-3 -3 -12 -4 -19 -1 -8 3 -5 6
6 6 11 1 17 -2 13 -5z m-2770 -10 c-3 -3 -12 -4 -19 -1 -8 3 -5 6 6 6 11 1 17
-2 13 -5z m2721 -1 c-10 -2 -26 -2 -35 0 -10 3 -2 5 17 5 19 0 27 -2 18 -5z
m-1438 -27 c0 -5 -80 -31 -125 -41 -52 -11 -14 12 45 28 59 16 80 20 80 13z
m1615 -12 c-5 -2 -77 -15 -158 -29 -136 -23 -289 -34 -274 -19 11 11 140 36
227 44 93 8 221 11 205 4z m260 -9 c-19 -7 -357 -46 -362 -41 -6 6 38 15 153
30 90 13 233 20 209 11z m-716 -10 c-15 -14 -164 -35 -247 -34 -165 1 -43 22
227 38 13 0 22 -1 20 -4z m-1794 -20 c-79 -13 -151 -18 -129 -9 17 7 134 21
174 22 19 0 -1 -6 -45 -13z m3115 5 c-49 -12 -247 -24 -238 -15 10 11 111 22
198 23 61 0 68 -2 40 -8z m-5140 -49 c-43 -23 -455 -73 -588 -70 l-37 0 45 15
c195 63 194 63 400 63 108 0 188 -3 180 -8z m185 0 c-25 -10 -120 -23 -113
-16 6 7 85 23 113 23 l20 1 -20 -8z m943 3 c-17 -16 -142 -37 -393 -64 -154
-17 -361 -39 -460 -50 -188 -21 -284 -25 -185 -8 30 5 150 25 265 44 116 19
264 46 330 59 94 18 155 23 284 24 90 1 162 -2 159 -5z m159 0 c-3 -3 -12 -4
-19 -1 -8 3 -5 6 6 6 11 1 17 -2 13 -5z m471 1 c-13 -14 -196 -36 -438 -55
-146 -11 -292 -22 -325 -25 -45 -4 -54 -3 -37 5 19 8 393 54 597 73 66 6 209
7 203 2z m1222 -5 c-32 -11 -806 -130 -845 -130 -18 0 43 26 145 61 158 54
186 61 290 68 160 11 442 12 410 1z m557 4 c-3 -3 -88 -24 -189 -45 -137 -30
-222 -42 -338 -49 -391 -23 -543 -30 -548 -25 -3 3 1 5 8 5 10 0 680 98 770
113 40 7 304 8 297 1z m271 1 c-8 -8 -398 -75 -428 -74 -27 1 34 17 205 54 99
21 237 33 223 20z m442 -5 c-33 -11 -333 -44 -350 -38 -14 4 294 46 345 46 29
0 29 0 5 -8z m885 -6 c-11 -8 -35 -18 -55 -23 -45 -12 -150 -23 -130 -14 31
14 166 52 185 52 20 0 20 0 0 -15z m163 11 c-3 -3 -29 -10 -59 -14 -46 -8 -51
-7 -34 5 17 13 105 21 93 9z m-6275 -12 c-7 -2 -19 -2 -25 0 -7 3 -2 5 12 5
14 0 19 -2 13 -5z m5490 0 c-13 -2 -33 -2 -45 0 -13 2 -3 4 22 4 25 0 35 -2
23 -4z m352 -34 c-88 -29 -179 -49 -345 -74 -124 -19 -229 -35 -235 -34 -5 0
3 7 18 15 40 21 29 38 -29 45 -27 3 -39 7 -26 7 13 1 87 13 165 27 122 21 425
51 537 53 24 0 -1 -12 -85 -39z m-2580 2 c-6 -5 -69 -28 -141 -50 -121 -38
-140 -41 -240 -40 l-109 0 145 31 c80 16 190 38 245 48 55 10 102 18 105 19 2
1 0 -3 -5 -8z m-425 -27 c-87 -21 -396 -66 -432 -62 -18 2 75 19 207 39 256
39 313 45 225 23z m2330 0 c-143 -23 -725 -72 -735 -62 -5 5 435 57 574 68 53
4 130 7 171 7 l75 1 -85 -14z m-2570 0 c-32 -8 -284 -44 -299 -43 -32 2 225
47 269 47 25 0 38 -2 30 -4z m3358 -15 c-20 -11 -249 -42 -256 -34 -3 3 1 5 9
6 8 0 64 9 124 19 135 22 146 23 123 9z m-4221 -5 c-3 -3 -12 -4 -19 -1 -8 3
-5 6 6 6 11 1 17 -2 13 -5z m383 -24 c-52 -10 -124 -18 -160 -18 l-65 0 55 10
c97 16 174 25 220 26 34 0 23 -4 -50 -18z m-1810 -6 c-95 -14 -146 -17 -137
-8 9 9 111 21 172 21 42 0 36 -2 -35 -13z m1475 -4 c-11 -5 -33 -8 -50 -8
l-30 0 30 8 c17 4 39 8 50 8 l20 1 -20 -9z m2113 -11 c-33 -8 -280 -40 -898
-118 -358 -45 -692 -83 -696 -78 -2 2 44 12 103 21 60 10 176 35 258 56 224
57 436 87 700 101 127 6 284 15 350 19 66 4 143 7 170 7 49 1 50 1 13 -8z
m1342 7 c0 -2 -28 -13 -62 -25 -58 -18 -577 -102 -623 -100 -23 1 81 39 205
74 47 14 144 31 215 39 129 14 265 20 265 12z m-451 -10 c-2 -2 -98 -35 -214
-74 l-210 -70 -415 -51 c-228 -29 -508 -65 -622 -82 -161 -23 -236 -29 -330
-27 l-122 3 509 112 c281 62 526 114 545 117 67 11 316 35 465 46 83 6 197 15
255 19 58 5 114 9 124 10 11 0 17 -1 15 -3z m971 -33 c-68 -30 -229 -62 -408
-82 -100 -12 -195 -21 -210 -20 -15 0 38 18 118 40 141 38 384 76 485 77 l50
0 -35 -15z m-5585 -2 c-39 -16 -365 -67 -365 -57 0 12 281 62 365 64 l20 1
-20 -8z m1254 5 c-2 -2 -99 -27 -214 -55 l-210 -51 -330 1 -330 1 135 20 c529
78 605 86 779 87 96 1 172 -1 170 -3z m151 0 c0 -7 -300 -78 -312 -74 -6 2 54
20 133 40 140 35 179 42 179 34z m210 0 c0 -2 -37 -9 -82 -15 -46 -7 -92 -15
-103 -18 -11 -3 -17 -2 -13 2 17 18 198 47 198 31z m409 0 c-8 -7 -389 -57
-412 -54 -26 4 308 55 372 57 24 0 42 -1 40 -3z m669 -2 c-4 -3 -80 -16 -170
-30 -89 -13 -500 -73 -912 -134 -412 -61 -765 -110 -785 -108 -24 2 3 9 79 21
417 66 934 156 1360 237 66 13 146 18 264 19 93 1 167 -2 164 -5z m3430 -11
c-10 -2 -28 -2 -40 0 -13 2 -5 4 17 4 22 1 32 -1 23 -4z m-73 -8 c-19 -8 -327
-46 -332 -42 -2 3 47 12 109 21 62 9 124 18 138 20 34 5 97 5 85 1z m-4166
-39 c-13 -13 -1164 -199 -1299 -210 l-65 -5 60 19 c75 25 147 38 575 101 649
95 741 107 729 95z m1171 -107 c-437 -98 -493 -108 -570 -106 -84 2 -82 3 345
91 237 49 477 96 535 106 247 41 144 11 -310 -91z m1939 107 c-2 -2 -65 -20
-140 -39 -110 -29 -197 -43 -465 -72 -181 -19 -340 -38 -354 -41 -47 -10 -6
13 60 35 42 13 195 36 440 66 206 25 382 47 390 49 21 5 74 7 69 2z m120 -61
c-18 -18 -481 -105 -634 -119 -81 -8 -51 3 125 47 89 23 211 44 315 56 210 23
199 22 194 16z m-2451 -22 c-10 -2 -26 -2 -35 0 -10 3 -2 5 17 5 19 0 27 -2
18 -5z m-483 -63 c-380 -52 -632 -79 -583 -64 29 9 932 122 973 122 22 0 -153
-26 -390 -58z m674 56 c-2 -2 -142 -32 -310 -65 l-306 -61 -174 1 c-96 1 -165
4 -154 6 41 9 881 121 914 122 19 0 32 -1 30 -3z m1121 -40 c0 -19 -354 -76
-392 -64 -7 3 67 18 163 35 168 30 229 38 229 29z m529 0 c-2 -2 -75 -22 -161
-45 -155 -41 -158 -41 -335 -41 -130 1 -173 3 -160 11 25 14 670 88 656 75z
m483 -42 l-133 -45 -132 3 -132 3 70 12 c229 39 423 70 440 71 11 0 -40 -20
-113 -44z m-1662 -24 c-38 -9 -175 -22 -150 -14 22 6 131 22 160 22 18 0 16
-2 -10 -8z m2460 -1 c-38 -9 -251 -22 -235 -14 16 8 153 22 215 23 51 0 53 -1
20 -9z m-5340 -9 c-8 -5 -26 -9 -40 -9 -23 1 -23 2 5 9 43 11 52 11 35 0z
m5513 3 c-7 -2 -19 -2 -25 0 -7 3 -2 5 12 5 14 0 19 -2 13 -5z m-4640 -10 c-7
-2 -19 -2 -25 0 -7 3 -2 5 12 5 14 0 19 -2 13 -5z m2424 1 c-3 -3 -12 -4 -19
-1 -8 3 -5 6 6 6 11 1 17 -2 13 -5z m-3552 -50 c-113 -15 -161 -17 -152 -7 13
12 82 21 167 21 l85 0 -100 -14z m375 0 c-84 -12 -208 -18 -199 -9 11 10 119
23 199 23 l85 -1 -85 -13z m448 6 c-74 -13 -204 -23 -197 -16 9 10 117 24 184
24 l60 0 -47 -8z m332 0 c-79 -13 -175 -22 -169 -15 11 10 93 23 154 23 60 0
60 0 15 -8z m645 -6 c-66 -12 -535 -21 -524 -9 15 15 141 23 354 23 228 0 236
-1 170 -14z m355 0 c-37 -8 -103 -13 -155 -12 -89 3 -90 3 -45 14 25 7 95 12
155 12 l110 0 -65 -14z m325 1 c-83 -14 -223 -20 -212 -9 14 14 79 22 182 22
l110 0 -80 -13z m290 5 c-64 -12 -148 -20 -141 -13 10 10 77 21 131 21 l50 0
-40 -8z m645 -5 c-25 -10 -93 -14 -234 -14 -110 -1 -197 1 -194 4 12 13 142
22 298 23 149 0 162 -1 130 -13z m370 -1 c-41 -7 -129 -13 -195 -13 -110 1
-117 2 -90 14 22 10 75 14 195 13 l165 -1 -75 -13z m290 6 c-14 -4 -36 -8 -50
-8 -22 0 -22 1 5 8 17 4 39 8 50 8 16 0 15 -2 -5 -8z m435 -5 c-40 -14 -365
-21 -352 -9 15 16 84 22 232 22 146 0 157 -1 120 -13z m270 5 c-110 -16 -200
-21 -190 -12 16 16 44 20 145 20 79 0 87 -2 45 -8z m390 -5 c-77 -13 -274 -20
-264 -10 12 12 123 23 229 23 l115 0 -80 -13z m1050 10 c-49 -18 -1073 -161
-1083 -151 -6 6 289 86 353 96 39 6 112 18 164 26 51 9 132 19 180 24 87 7
404 12 386 5z m-875 -51 c-69 -14 -107 -17 -98 -9 8 9 89 23 128 23 25 0 17
-4 -30 -14z m-5411 -4 c-42 -24 -144 -41 -274 -45 -77 -2 -132 -2 -123 1 16 5
365 51 398 53 12 0 12 -1 -1 -9z m144 3 c-7 -2 -19 -2 -25 0 -7 3 -2 5 12 5
14 0 19 -2 13 -5z m386 3 c-7 -7 -268 -38 -282 -33 -15 5 182 34 242 36 24 0
42 -1 40 -3z m1090 -1 c-3 -2 -79 -14 -170 -26 -129 -17 -227 -22 -459 -25
-162 -1 -284 0 -270 3 14 3 102 16 195 28 138 18 221 23 439 24 148 0 267 -1
265 -4z m420 1 c-13 -13 -381 -56 -471 -55 -121 2 -119 2 82 33 133 20 403 35
389 22z m228 -6 c-16 -5 -66 -11 -110 -14 l-82 -5 55 13 c63 16 186 21 137 6z
m1092 6 c-2 -3 -95 -34 -205 -70 l-201 -66 -309 2 -308 3 174 50 c279 79 310
83 599 84 140 1 252 -1 250 -3z m354 -6 c-64 -26 -366 -92 -496 -108 -81 -10
-145 -16 -141 -13 3 3 87 33 187 67 l182 62 145 1 c95 0 137 -3 123 -9z m206
6 c-7 -7 -181 -37 -186 -33 -7 7 109 35 151 36 22 1 37 -1 35 -3z m493 -6
c-28 -12 -417 -63 -677 -90 -104 -11 -214 -25 -244 -30 -57 -10 -148 -14 -139
-5 2 3 135 27 294 55 159 28 318 57 354 64 75 16 450 21 412 6z m368 0 c-30
-4 -95 -10 -145 -13 l-90 -5 80 13 c44 7 109 13 145 13 l65 0 -55 -8z m-5185
-11 c-40 -12 -263 -41 -278 -36 -7 2 29 10 78 17 50 7 110 16 135 20 25 4 56
8 70 8 23 0 22 -1 -5 -9z m5375 -10 c-101 -25 -784 -111 -847 -107 -47 3 -47
3 52 30 73 20 162 33 330 47 127 12 271 25 320 30 50 4 110 8 135 9 l45 0 -35
-9z m-4752 -16 c-10 -2 -28 -2 -40 0 -13 2 -5 4 17 4 22 1 32 -1 23 -4z m2107
2 c-14 -5 -390 -62 -455 -69 -116 -12 -12 14 155 38 94 14 181 27 195 29 32 5
118 7 105 2z m-1932 -12 c-7 -2 -19 -2 -25 0 -7 3 -2 5 12 5 14 0 19 -2 13 -5z
m4777 -29 c-122 -39 -213 -54 -322 -53 l-103 1 230 38 c270 44 295 46 195 14z
m1208 21 c-6 -6 -449 -75 -480 -75 -10 0 -18 5 -18 10 0 6 14 10 31 10 17 0
102 11 188 24 208 33 290 42 279 31z m-3929 -9 c-2 -2 -52 -18 -110 -35 -100
-29 -117 -31 -255 -30 l-149 1 155 19 c85 10 196 25 245 33 103 16 120 18 114
12z m2518 -2 c-3 -3 -12 -4 -19 -1 -8 3 -5 6 6 6 11 1 17 -2 13 -5z m-5467
-13 c-8 -5 -44 -11 -80 -14 -70 -7 -70 -2 1 12 61 12 99 13 79 2z m675 0 c-6
-5 -46 -12 -90 -15 -90 -7 -90 0 0 13 85 12 101 13 90 2z m573 -1 c-14 -4 -98
-11 -185 -14 -87 -4 -189 -9 -228 -11 -109 -7 -40 13 80 24 129 11 369 12 333
1z m702 1 c-28 -16 -221 -31 -393 -30 -123 1 -161 4 -132 10 91 19 555 37 525
20z m290 -6 c-101 -17 -227 -29 -218 -20 10 11 167 33 233 33 l60 -1 -75 -12z
m3163 8 c-7 -2 -21 -2 -30 0 -10 3 -4 5 12 5 17 0 24 -2 18 -5z m-5008 -13
c-16 -4 -43 -8 -60 -8 -25 -1 -27 1 -10 8 11 5 38 8 60 8 38 0 39 -1 10 -8z
m4135 -21 c-51 -15 -93 -19 -195 -18 -71 1 -121 4 -110 6 38 7 280 31 325 31
l45 0 -65 -19z m525 -9 c-11 -5 -36 -8 -55 -8 l-35 1 40 7 c57 10 74 10 50 0z
m-3765 -60 c-63 -10 -227 -34 -365 -55 -137 -20 -288 -43 -334 -51 -63 -10
-175 -14 -455 -13 l-371 0 65 26 c59 23 348 81 510 102 36 5 290 9 565 9 l500
0 -115 -18z m445 15 c-13 -6 -411 -69 -662 -105 -170 -25 -387 -40 -372 -26 2
2 38 9 79 15 106 15 543 80 680 101 98 15 305 26 275 15z m285 -1 c-38 -10
-905 -134 -913 -131 -6 2 70 16 169 32 98 15 283 45 409 66 127 20 257 37 290
37 33 0 53 -2 45 -4z m589 2 c-2 -2 -62 -20 -132 -40 -124 -36 -139 -37 -490
-61 -418 -28 -654 -40 -647 -32 3 3 133 24 290 47 157 23 348 52 425 65 111
18 183 23 349 24 115 0 207 -1 205 -3z m581 -2 c-27 -7 -683 -65 -687 -61 -2
2 43 18 99 34 103 31 103 31 353 31 138 0 243 -2 235 -4z m1140 2 c0 -9 -223
-56 -360 -76 -233 -33 -745 -74 -730 -57 6 6 483 105 594 122 73 11 496 21
496 11z m455 -1 c-21 -8 -393 -55 -426 -54 -50 2 316 57 381 57 30 0 51 -1 45
-3z m263 -2 c-10 -2 -26 -2 -35 0 -10 3 -2 5 17 5 19 0 27 -2 18 -5z m497 -28
c-27 -10 -301 -46 -380 -50 -106 -4 -93 -1 125 29 144 21 285 32 255 21z m815
-10 c-110 -14 -207 -18 -199 -10 12 11 120 23 209 22 l95 0 -105 -12z m-3005
-6 c-22 -4 -53 -8 -70 -7 -29 0 -29 0 -5 8 14 4 45 8 70 8 l45 0 -40 -9z
m-220 -8 c-15 -14 -136 -38 -306 -61 -124 -16 -198 -20 -365 -18 -190 3 -204
4 -157 15 45 11 206 25 703 62 63 4 119 9 125 10 6 0 6 -2 0 -8z m3585 -31
c-14 -5 -100 -21 -191 -35 -120 -19 -176 -24 -200 -17 -30 7 -16 11 106 30 77
12 151 23 165 25 14 3 52 5 85 5 46 0 54 -2 35 -8z m-3471 -4 c-2 -2 -41 -14
-86 -25 -75 -19 -205 -29 -190 -15 3 4 59 15 124 24 124 19 159 23 152 16z
m1354 -3 c-7 -2 -21 -2 -30 0 -10 3 -4 5 12 5 17 0 24 -2 18 -5z m1202 -13
c-178 -23 -236 -23 -85 0 63 10 140 18 170 18 35 0 5 -7 -85 -18z m-1267 3
c-10 -2 -26 -2 -35 0 -10 3 -2 5 17 5 19 0 27 -2 18 -5z m-331 -9 c-3 -3 -12
-4 -19 -1 -8 3 -5 6 6 6 11 1 17 -2 13 -5z m266 -1 c-7 -2 -21 -2 -30 0 -10 3
-4 5 12 5 17 0 24 -2 18 -5z m-325 -10 c-10 -2 -26 -2 -35 0 -10 3 -2 5 17 5
19 0 27 -2 18 -5z m255 0 c-7 -2 -19 -2 -25 0 -7 3 -2 5 12 5 14 0 19 -2 13
-5z m-330 -10 c-7 -2 -19 -2 -25 0 -7 3 -2 5 12 5 14 0 19 -2 13 -5z m2567
-18 c0 -17 -108 -42 -330 -76 -140 -22 -258 -38 -264 -36 -11 4 374 84 489
102 98 16 105 16 105 10z m-6110 -35 c-143 -21 -267 -34 -259 -25 15 14 202
43 284 43 l90 0 -115 -18z m338 13 c-10 -2 -28 -2 -40 0 -13 2 -5 4 17 4 22 1
32 -1 23 -4z m1017 -39 c-156 -46 -218 -55 -595 -84 -80 -6 -203 -16 -273 -22
-70 -6 -130 -9 -132 -6 -3 3 639 111 875 147 30 5 105 9 165 9 l110 1 -150
-45z m515 40 c-8 -2 -107 -15 -220 -29 -113 -14 -218 -28 -235 -31 -60 -12
-15 7 81 36 90 26 113 28 244 28 80 0 138 -2 130 -4z m285 -5 c-37 -12 -350
-42 -373 -36 -9 3 -4 6 13 7 17 1 86 10 155 20 142 20 256 25 205 9z m188 4
c-13 -2 -33 -2 -45 0 -13 2 -3 4 22 4 25 0 35 -2 23 -4z m946 3 c-2 -2 -26 -6
-54 -9 -34 -4 -42 -3 -25 3 25 8 87 13 79 6z m-754 -26 c-66 -10 -131 -18
-145 -18 -47 0 28 19 110 27 136 15 157 9 35 -9z m3064 16 c-7 -7 -250 -38
-255 -33 -3 3 35 10 83 17 48 6 95 13 103 15 24 5 74 5 69 1z m686 -5 c-11 -5
-67 -16 -125 -25 -58 -10 -114 -20 -125 -23 -15 -4 -17 -2 -9 6 10 11 208 48
259 49 l20 1 -20 -8z m-3460 -7 c-5 -2 -118 -19 -250 -38 -132 -20 -327 -49
-434 -66 -107 -17 -196 -29 -197 -27 -2 2 43 14 99 27 140 32 833 125 782 104z
m1992 0 c-3 -3 -12 -4 -19 -1 -8 3 -5 6 6 6 11 1 17 -2 13 -5z m-100 -10 c-3
-3 -12 -4 -19 -1 -8 3 -5 6 6 6 11 1 17 -2 13 -5z m1690 0 c-3 -3 -12 -4 -19
-1 -8 3 -5 6 6 6 11 1 17 -2 13 -5z m-2314 -11 c-7 -2 -19 -2 -25 0 -7 3 -2 5
12 5 14 0 19 -2 13 -5z m545 0 c-10 -2 -26 -2 -35 0 -10 3 -2 5 17 5 19 0 27
-2 18 -5z m397 -24 c-114 -24 -379 -51 -325 -33 24 7 412 62 440 62 14 0 -38
-13 -115 -29z m1334 27 c-2 -2 -26 -6 -54 -9 -34 -4 -42 -3 -25 3 25 8 87 13
79 6z m-3539 -22 c-109 -27 -833 -138 -853 -131 -7 2 11 7 38 11 44 7 730 118
795 129 57 10 71 4 20 -9z m1197 10 c-3 -3 -12 -4 -19 -1 -8 3 -5 6 6 6 11 1
17 -2 13 -5z m-4110 -10 c-3 -3 -12 -4 -19 -1 -8 3 -5 6 6 6 11 1 17 -2 13 -5z
m2281 1 c-7 -7 -266 -45 -298 -44 -39 1 70 28 153 38 88 10 152 13 145 6z
m1759 -1 c-3 -3 -12 -4 -19 -1 -8 3 -5 6 6 6 11 1 17 -2 13 -5z m1976 -5 c-15
-15 -277 -59 -343 -58 -70 2 -55 5 164 39 100 15 183 28 186 29 2 0 -1 -4 -7
-10z m-1246 -5 c-10 -11 -191 -34 -257 -33 -85 2 -59 8 102 24 171 16 162 16
155 9z m732 -9 c-10 -10 -152 -35 -192 -34 -29 1 -10 7 63 19 119 20 135 22
129 15z m-3719 -36 c-131 -32 -423 -72 -496 -67 -45 3 -35 6 106 41 161 39
275 54 420 55 l85 0 -115 -29z m4320 21 c-14 -4 -34 -8 -45 -8 -16 0 -15 2 5
8 14 4 34 8 45 8 16 0 15 -2 -5 -8z m-4712 -16 c-3 -3 -70 -22 -147 -42 -78
-21 -141 -42 -139 -47 2 -6 61 -10 142 -10 76 1 134 0 130 -2 -5 -1 -70 -16
-145 -33 -124 -27 -153 -30 -310 -30 -100 0 -168 4 -159 9 28 16 485 144 540
151 75 10 94 11 88 4z m2947 -29 c-5 -2 -104 -17 -220 -34 -149 -21 -264 -32
-395 -35 -102 -3 -174 -2 -160 1 87 19 573 71 670 71 63 0 111 -1 105 -3z
m340 0 c-5 -2 -107 -15 -225 -29 -118 -14 -235 -28 -259 -31 -25 -3 -42 -2
-38 1 12 13 365 62 447 62 47 0 81 -1 75 -3z m510 -4 c-19 -16 -108 -30 -1334
-206 -667 -95 -787 -111 -756 -100 9 4 1000 160 1075 170 19 2 188 29 375 59
187 31 383 62 435 70 109 16 219 20 205 7z m-4130 -7 c-5 -2 -98 -30 -205 -61
l-195 -58 -285 -2 c-157 -1 -279 1 -271 4 17 7 894 121 936 121 17 0 26 -1 20
-4z m795 -9 c-102 -23 -504 -103 -555 -110 -93 -13 -38 6 136 47 183 42 380
76 439 76 30 0 27 -2 -20 -13z m3618 8 c-10 -2 -28 -2 -40 0 -13 2 -5 4 17 4
22 1 32 -1 23 -4z m-4851 -19 c-3 -3 -12 -4 -19 -1 -8 3 -5 6 6 6 11 1 17 -2
13 -5z m-72 -10 c-43 -8 -655 -83 -730 -90 -44 -4 -77 -4 -74 0 10 11 277 54
407 66 64 6 158 14 207 19 90 8 228 12 190 5z m1715 -19 c-36 -8 -92 -16 -125
-19 -43 -3 -32 0 40 14 55 10 111 18 125 18 14 0 -4 -6 -40 -13z m-232 -2
c-10 -2 -26 -2 -35 0 -10 3 -2 5 17 5 19 0 27 -2 18 -5z m-65 -10 c-7 -2 -19
-2 -25 0 -7 3 -2 5 12 5 14 0 19 -2 13 -5z m3202 2 c-15 -6 -537 -85 -555 -84
-26 1 325 68 407 77 82 10 165 13 148 7z m-1506 -29 c-7 -8 -418 -65 -539 -76
-116 -10 -277 -14 -269 -6 6 6 423 75 479 79 69 5 334 8 329 3z m438 -2 c-3
-3 -12 -4 -19 -1 -8 3 -5 6 6 6 11 1 17 -2 13 -5z m1373 -3 c-42 -24 -418 -81
-525 -80 -59 1 -40 6 130 30 110 16 243 35 295 43 117 17 118 17 100 7z m140
0 c-8 -5 -72 -25 -142 -45 -87 -26 -141 -36 -175 -34 -46 3 -45 4 42 20 50 10
128 29 175 42 92 26 127 32 100 17z m-1587 -8 c-13 -2 -33 -2 -45 0 -13 2 -3
4 22 4 25 0 35 -2 23 -4z m-85 -10 c-10 -2 -28 -2 -40 0 -13 2 -5 4 17 4 22 1
32 -1 23 -4z m-85 -10 c-13 -2 -35 -2 -50 0 -16 2 -5 4 22 4 28 0 40 -2 28 -4z
m-100 -10 c-7 -2 -21 -2 -30 0 -10 3 -4 5 12 5 17 0 24 -2 18 -5z m-4188 -23
c-16 -4 -46 -8 -65 -8 l-35 1 35 7 c19 4 49 7 65 8 l30 0 -30 -8z m1404 5 c-7
-7 -268 -61 -404 -84 -141 -24 -304 -38 -292 -25 5 5 88 32 185 60 l177 52
169 1 c93 1 167 -1 165 -4z m2251 -61 c-413 -50 -561 -66 -565 -62 -4 4 460
73 545 81 19 2 76 4 125 4 82 1 73 -1 -105 -23z m-1631 12 c-8 -8 -265 -56
-334 -62 -125 -12 -60 8 117 36 172 27 225 34 217 26z m3650 -1 c-3 -2 -126
-18 -275 -34 -148 -17 -293 -35 -323 -41 -29 -5 -83 -10 -120 -9 -58 1 -62 2
-31 10 38 9 348 54 470 68 82 9 286 14 279 6z m980 1 c-7 -6 -489 -68 -501
-64 -10 4 286 54 362 61 54 6 144 7 139 3z m-3589 -21 c-131 -17 -187 -17
-100 0 36 7 97 13 135 13 69 0 68 0 -35 -13z m-313 -1 c-3 -3 -12 -4 -19 -1
-8 3 -5 6 6 6 11 1 17 -2 13 -5z m1098 0 c-9 -3 -352 -58 -530 -85 -33 -5
-114 -8 -180 -8 l-120 2 155 19 c538 66 703 83 675 72z m-1152 -11 c-7 -2 -21
-2 -30 0 -10 3 -4 5 12 5 17 0 24 -2 18 -5z m-369 -23 c-35 -14 -523 -91 -557
-88 -30 3 70 21 403 73 160 25 185 28 154 15z m2446 -15 c-36 -8 -96 -13 -135
-13 l-70 1 95 12 c52 6 113 12 135 12 33 1 29 -1 -25 -12z m488 -12 c-10 -2
-26 -2 -35 0 -10 3 -2 5 17 5 19 0 27 -2 18 -5z m-4643 -13 c-16 -4 -41 -8
-55 -8 -23 -1 -23 0 -5 8 11 5 36 8 55 8 l35 0 -30 -8z m894 6 c-7 -7 -491
-67 -496 -62 -3 2 15 7 39 11 23 3 111 17 193 30 135 21 275 32 264 21z m-406
-13 c-7 -2 -19 -2 -25 0 -7 3 -2 5 12 5 14 0 19 -2 13 -5z m3387 -29 c-150
-36 -374 -67 -662 -89 -356 -27 -517 -37 -503 -31 17 8 342 56 640 96 220 30
312 38 430 38 147 0 149 -1 95 -14z m315 11 c-19 -8 -418 -75 -421 -72 -3 3
107 30 271 66 39 9 170 13 150 6z m474 0 c-9 -9 -185 -35 -466 -70 -159 -19
-332 -42 -387 -51 -54 -8 -100 -13 -102 -11 -9 9 240 52 531 92 278 38 437 53
424 40z m1191 -1 c-17 -4 -1137 -151 -1215 -159 -70 -7 -58 -3 200 65 310 83
426 98 765 98 146 0 258 -2 250 -4z m235 -20 c-5 -2 -230 -49 -500 -103 -269
-55 -551 -114 -625 -131 -193 -44 -292 -60 -333 -53 l-36 5 30 26 c17 13 28
31 25 38 -6 15 2 17 184 43 74 11 286 43 470 71 530 80 819 118 785 104z
m-4427 -19 c-6 -7 -344 -56 -368 -54 -35 3 143 41 225 48 121 11 149 12 143 6z
m-738 -26 c-25 -4 -58 -7 -75 -7 -29 1 -29 1 5 8 19 4 53 7 75 7 l40 0 -45 -8z
m3869 -13 c-7 -7 -202 -57 -206 -53 -6 7 71 37 117 46 49 10 96 13 89 7z
m-298 -62 c-62 -29 -196 -67 -213 -62 -11 4 130 57 202 77 62 16 66 10 11 -15z
m-4438 -1 c-7 -2 -21 -2 -30 0 -10 3 -4 5 12 5 17 0 24 -2 18 -5z m-98 -14
c-22 -4 -53 -7 -70 -7 -26 1 -24 2 10 8 22 4 54 7 70 7 25 1 23 -1 -10 -8z
m472 5 c-3 -3 -12 -4 -19 -1 -8 3 -5 6 6 6 11 1 17 -2 13 -5z m4530 0 c-3 -3
-12 -4 -19 -1 -8 3 -5 6 6 6 11 1 17 -2 13 -5z m-4589 -11 c-10 -2 -26 -2 -35
0 -10 3 -2 5 17 5 19 0 27 -2 18 -5z m4520 0 c-10 -2 -26 -2 -35 0 -10 3 -2 5
17 5 19 0 27 -2 18 -5z m-5108 -18 c-77 -13 -217 -27 -190 -19 31 9 196 32
230 32 19 0 2 -6 -40 -13z m527 9 c-3 -3 -12 -4 -19 -1 -8 3 -5 6 6 6 11 1 17
-2 13 -5z m360 0 c-3 -3 -12 -4 -19 -1 -8 3 -5 6 6 6 11 1 17 -2 13 -5z m4158
1 c-28 -10 -306 -46 -336 -43 -19 2 36 12 121 24 142 19 240 28 215 19z
m-4265 -21 c-102 -21 -419 -66 -438 -62 -9 2 89 20 218 39 238 37 338 48 220
23z m3651 -5 c-56 -25 -124 -42 -147 -37 -11 2 24 15 76 30 113 32 130 33 71
7z m-3352 6 c-14 -13 -835 -142 -845 -132 -5 5 425 82 626 112 154 22 228 29
219 20z m3189 -10 c-18 -18 -333 -93 -344 -82 -4 4 260 74 306 80 14 3 29 5
34 6 5 0 7 -1 4 -4z m2145 -2 c-7 -2 -21 -2 -30 0 -10 3 -4 5 12 5 17 0 24 -2
18 -5z m-6630 -10 c-7 -2 -21 -2 -30 0 -10 3 -4 5 12 5 17 0 24 -2 18 -5z
m6412 -19 c-93 -12 -240 -30 -325 -38 -335 -33 -493 -47 -497 -43 -9 10 293
49 562 72 160 14 297 27 305 29 8 2 40 4 70 4 34 0 -11 -9 -115 -24z m-4888 0
c-3 -3 -12 -4 -19 -1 -8 3 -5 6 6 6 11 1 17 -2 13 -5z m3268 -3 c-6 -5 -37
-12 -70 -15 l-60 -6 45 14 c53 17 98 20 85 7z m-3332 -8 c-7 -2 -21 -2 -30 0
-10 3 -4 5 12 5 17 0 24 -2 18 -5z m4404 1 c-3 -3 -12 -4 -19 -1 -8 3 -5 6 6
6 11 1 17 -2 13 -5z m-4479 -11 c-10 -2 -26 -2 -35 0 -10 3 -2 5 17 5 19 0 27
-2 18 -5z m3652 -7 c-25 -31 -103 -44 -300 -51 -107 -3 -220 -8 -250 -12 -30
-3 -52 -2 -48 2 10 11 463 73 542 74 59 1 67 -1 56 -13z m735 8 c-5 -2 -174
-31 -375 -64 -201 -33 -378 -63 -395 -66 -16 -4 -28 -4 -25 -1 9 10 265 65
405 87 204 33 424 58 390 44z m-5247 -11 c-10 -2 -26 -2 -35 0 -10 3 -2 5 17
5 19 0 27 -2 18 -5z m677 -14 c-71 -10 -134 -17 -140 -15 -5 2 10 6 35 10 25
4 70 10 100 15 30 5 73 9 95 9 22 0 -18 -9 -90 -19z m-748 5 c-3 -3 -12 -4
-19 -1 -8 3 -5 6 6 6 11 1 17 -2 13 -5z m3999 -6 c-19 -11 -257 -50 -264 -43
-6 6 71 25 166 39 112 18 122 18 98 4z m1882 -4 c-9 -8 -316 -61 -518 -89
-218 -30 -872 -115 -885 -115 -5 0 0 7 12 15 24 17 909 146 1233 180 155 16
165 16 158 9z m-5503 -44 c-16 -4 -41 -8 -55 -8 -22 0 -22 1 5 8 17 4 41 8 55
8 22 0 22 -1 -5 -8z m262 4 c-3 -3 -12 -4 -19 -1 -8 3 -5 6 6 6 11 1 17 -2 13
-5z m2983 1 c0 -14 -344 -84 -357 -72 -9 10 171 49 350 76 4 0 7 -1 7 -4z
m-3125 -25 c-106 -20 -142 -24 -132 -14 7 7 162 32 202 32 17 0 -15 -8 -70
-18z m3885 12 c0 -15 -76 -32 -298 -67 -258 -39 -382 -52 -367 -37 6 6 48 27
95 48 83 36 89 37 260 45 188 9 278 14 298 17 6 1 12 -2 12 -6z m-4725 -23
c-94 -19 -341 -55 -435 -64 -110 -10 15 15 250 50 248 37 324 43 185 14z
m6464 17 c-2 -2 -130 -23 -284 -46 -154 -22 -341 -52 -415 -65 -176 -32 -427
-68 -441 -63 -21 7 400 89 636 124 281 41 519 65 504 50z m-6029 -11 c0 -2
-17 -9 -37 -15 -47 -13 -534 -83 -539 -77 -5 5 317 61 461 81 55 7 103 14 108
15 4 0 7 -1 7 -4z m3718 -10 c-2 -3 -46 -23 -97 -45 -79 -34 -102 -40 -163
-40 -39 0 -69 2 -66 5 4 5 299 81 322 84 5 1 7 -1 4 -4z m1179 -1 c-3 -3 -12
-4 -19 -1 -8 3 -5 6 6 6 11 1 17 -2 13 -5z m-69 -11 c-10 -2 -26 -2 -35 0 -10
3 -2 5 17 5 19 0 27 -2 18 -5z m-69 -7 c-7 -7 -461 -68 -466 -62 -7 6 30 13
237 40 173 24 237 30 229 22z m-4719 -16 c-14 -4 -41 -8 -60 -8 l-35 1 35 7
c19 4 46 8 60 8 l25 0 -25 -8z m3405 -1 c-39 -12 -204 -39 -230 -38 -38 2 187
47 235 47 23 0 23 0 -5 -9z m2452 -5 c-3 -3 -12 -4 -19 -1 -8 3 -5 6 6 6 11 1
17 -2 13 -5z m-700 -10 c-3 -3 -12 -4 -19 -1 -8 3 -5 6 6 6 11 1 17 -2 13 -5z
m-67 -11 c-178 -33 -747 -109 -768 -103 -23 6 -17 8 33 15 33 4 202 27 375 50
173 23 331 43 350 42 26 0 28 -1 10 -4z m695 -22 c-33 -13 -252 -49 -369 -60
-98 -10 -128 -9 -115 3 4 4 459 64 489 64 9 1 7 -3 -5 -7z m-2078 -27 c-3 -3
-12 -4 -19 -1 -8 3 -5 6 6 6 11 1 17 -2 13 -5z m360 0 c-3 -3 -12 -4 -19 -1
-8 3 -5 6 6 6 11 1 17 -2 13 -5z m-414 -11 c-7 -2 -21 -2 -30 0 -10 3 -4 5 12
5 17 0 24 -2 18 -5z m360 0 c-7 -2 -19 -2 -25 0 -7 3 -2 5 12 5 14 0 19 -2 13
-5z m222 -10 c-24 -9 -83 -17 -145 -19 l-105 -3 110 18 c61 10 126 19 145 19
l35 1 -40 -16z m1665 8 c-57 -33 -219 -73 -425 -105 -219 -34 -362 -51 -340
-42 6 3 125 26 265 51 308 56 300 54 300 70 0 9 22 16 68 20 37 4 72 8 77 10
6 2 24 4 40 4 22 0 26 -2 15 -8z m-1181 -25 c-8 -7 -253 -54 -319 -61 -36 -4
-161 -20 -279 -36 -118 -16 -216 -27 -218 -25 -7 7 34 13 397 66 190 28 352
52 360 54 21 5 64 7 59 2z m108 -12 c-3 -3 -12 -4 -19 -1 -8 3 -5 6 6 6 11 1
17 -2 13 -5z m-1062 -39 c-155 -23 -190 -26 -184 -20 14 13 138 33 204 33 l70
-1 -90 -12z m410 5 c-11 -5 -29 -9 -40 -9 l-20 0 20 9 c11 5 29 9 40 9 l20 0
-20 -9z m-2476 -24 c-25 -23 -283 -71 -864 -161 -374 -58 -691 -109 -705 -112
-14 -3 -22 -3 -19 0 3 4 186 49 408 102 287 68 457 102 590 120 250 34 605 65
590 51z m3501 -12 c-36 -7 -74 -13 -85 -12 -33 1 77 26 115 26 26 0 17 -4 -30
-14z m-4140 -3 c-29 -9 -151 -23 -135 -16 13 6 114 23 140 23 15 0 14 -2 -5
-7z m3405 -11 c-16 -4 -43 -8 -60 -8 -29 1 -29 1 5 8 19 4 46 7 60 8 22 0 22
-1 -5 -8z m494 -4 c-7 -7 -255 -65 -308 -72 -50 -6 -68 4 -38 23 20 12 359 61
346 49z m-596 -13 c-7 -2 -19 -2 -25 0 -7 3 -2 5 12 5 14 0 19 -2 13 -5z m744
-19 c-3 -3 -12 -4 -19 -1 -8 3 -5 6 6 6 11 1 17 -2 13 -5z m367 -9 c-22 -7
-65 -15 -95 -18 l-54 -6 70 18 c82 22 144 27 79 6z m-5461 -2 c-7 -2 -19 -2
-25 0 -7 3 -2 5 12 5 14 0 19 -2 13 -5z m4524 -29 c-29 -16 -679 -98 -722 -92
-23 4 661 105 715 106 l35 1 -28 -15z m656 9 c-7 -2 -19 -2 -25 0 -7 3 -2 5
12 5 14 0 19 -2 13 -5z m-5176 -9 c-3 -3 -12 -4 -19 -1 -8 3 -5 6 6 6 11 1 17
-2 13 -5z m5083 -10 c-72 -17 -340 -62 -410 -68 l-55 -5 45 9 c82 18 435 78
455 78 11 0 -5 -6 -35 -14z m-5152 -1 c-10 -2 -26 -2 -35 0 -10 3 -2 5 17 5
19 0 27 -2 18 -5z m1390 2 c-2 -3 -82 -30 -176 -59 -234 -75 -393 -98 -966
-141 -109 -9 -201 -13 -204 -10 -3 3 -1 5 5 5 16 0 1297 200 1308 204 15 6 39
7 33 1z m2439 -41 c-3 -3 -12 -4 -19 -1 -8 3 -5 6 6 6 11 1 17 -2 13 -5z
m1318 -25 c-83 -24 -184 -39 -590 -84 -269 -30 -497 -54 -505 -52 -8 1 140 24
330 51 190 26 446 63 570 81 287 42 326 43 195 4z m-1317 -26 c-10 -2 -26 -2
-35 0 -10 3 -2 5 17 5 19 0 27 -2 18 -5z m2395 -30 c-7 -2 -21 -2 -30 0 -10 3
-4 5 12 5 17 0 24 -2 18 -5z m-6846 -9 c-3 -3 -12 -4 -19 -1 -8 3 -5 6 6 6 11
1 17 -2 13 -5z m6598 -25 c-110 -16 -373 -54 -585 -84 -212 -30 -524 -75 -694
-100 -295 -43 -354 -50 -345 -41 8 8 545 95 834 135 253 36 603 81 845 110
167 19 133 7 -55 -20z m-5186 -33 c-10 -11 -567 -82 -575 -74 -2 3 100 19 228
36 128 18 244 34 258 36 38 5 94 7 89 2z m896 -11 c-17 -7 -684 -114 -775
-125 -105 -12 -414 -12 -385 0 30 14 426 67 630 85 99 9 243 22 320 29 138 14
230 18 210 11z m3345 1 c0 -8 -71 -12 -76 -4 -3 4 13 8 35 8 23 0 41 -2 41 -4z
m-4822 -31 c-3 -3 -94 -18 -204 -34 -603 -89 -696 -102 -707 -98 -7 2 6 7 28
11 22 4 118 25 213 47 141 32 210 42 380 54 114 9 218 17 232 19 45 6 63 6 58
1z m-41 -41 c-3 -3 -12 -4 -19 -1 -8 3 -5 6 6 6 11 1 17 -2 13 -5z m5873 -34
c-19 -5 -66 -11 -105 -14 l-70 -5 75 13 c41 8 89 14 105 14 29 0 29 0 -5 -8z
m-5605 -40 c3 -5 48 -10 98 -11 69 -1 85 -3 62 -10 -86 -24 -1088 -143 -1382
-163 -84 -6 -99 8 -20 18 28 4 309 44 622 90 623 92 611 90 620 76z m1080 -26
c-200 -35 -710 -97 -754 -92 -14 2 80 18 209 37 129 19 316 47 415 62 99 15
212 27 250 27 63 0 51 -4 -120 -34z m4633 0 c-10 -10 -240 -35 -363 -39 l-120
-5 55 16 c30 8 123 19 205 23 218 11 229 12 223 5z m-1684 -44 c-25 -10 -314
-43 -321 -37 -3 3 15 8 39 12 23 3 84 12 133 19 105 16 182 19 149 6z m-3896
-7 c-10 -2 -26 -2 -35 0 -10 3 -2 5 17 5 19 0 27 -2 18 -5z m-68 -9 c-34 -9
-794 -95 -809 -92 -32 7 697 96 779 96 25 0 38 -2 30 -4z m4864 -14 c-6 -6
-51 -13 -100 -15 -96 -5 -95 0 1 14 89 13 111 13 99 1z m-3859 -6 c-18 -7
-657 -95 -667 -92 -8 3 294 50 582 92 35 5 97 5 85 0z m3355 -20 c-74 -13
-151 -23 -170 -22 -46 1 -21 7 120 28 169 26 207 21 50 -6z m-355 -5 c-66 -10
-131 -18 -145 -18 l-25 0 25 10 c30 12 147 26 215 26 34 0 12 -5 -70 -18z
m-3778 5 c-3 -3 -12 -4 -19 -1 -8 3 -5 6 6 6 11 1 17 -2 13 -5z m4932 2 c-6
-6 -272 -36 -306 -35 -23 1 -21 3 12 10 64 14 304 34 294 25z m-5242 -12 c-3
-3 -12 -4 -19 -1 -8 3 -5 6 6 6 11 1 17 -2 13 -5z m-48 -8 c-7 -7 -239 -38
-252 -33 -7 2 38 11 98 19 120 17 161 20 154 14z m420 -10 c-8 -8 -267 -55
-469 -85 -319 -47 -821 -112 -832 -109 -25 9 669 130 868 153 408 45 441 48
433 41z m3069 -3 c-10 -2 -26 -2 -35 0 -10 3 -2 5 17 5 19 0 27 -2 18 -5z
m330 0 c-10 -2 -26 -2 -35 0 -10 3 -2 5 17 5 19 0 27 -2 18 -5z m2060 -28 c-3
-3 -48 -10 -99 -16 -302 -31 -403 -43 -579 -69 -640 -96 -685 -101 -702 -91
-10 6 -57 11 -105 12 -121 1 -81 11 202 49 182 24 505 80 660 113 29 7 629 8
623 2z m-1863 -15 c-60 -12 -191 -23 -184 -16 7 7 136 23 189 24 l35 0 -40 -8z
m-3577 -7 c-10 -2 -26 -2 -35 0 -10 3 -2 5 17 5 19 0 27 -2 18 -5z m4537 -9
c-74 -17 -397 -64 -428 -63 -27 1 428 77 463 77 14 0 -2 -6 -35 -14z m-5436 2
c-6 -6 -263 -36 -291 -35 -32 2 197 37 251 38 24 0 42 -1 40 -3z m834 -3 c-7
-2 -21 -2 -30 0 -10 3 -4 5 12 5 17 0 24 -2 18 -5z m4086 3 c-10 -10 -157 -30
-624 -86 -275 -33 -534 -64 -575 -70 -41 -5 -84 -9 -95 -9 -19 0 -19 1 1 9 29
11 186 33 504 70 146 17 371 43 500 59 237 29 297 34 289 27z m-4151 -13 c-10
-2 -26 -2 -35 0 -10 3 -2 5 17 5 19 0 27 -2 18 -5z m-1615 -10 c-7 -2 -21 -2
-30 0 -10 3 -4 5 12 5 17 0 24 -2 18 -5z m1550 0 c-7 -2 -21 -2 -30 0 -10 3
-4 5 12 5 17 0 24 -2 18 -5z m-1615 -10 c-10 -2 -28 -2 -40 0 -13 2 -5 4 17 4
22 1 32 -1 23 -4z m1555 0 c-7 -2 -21 -2 -30 0 -10 3 -4 5 12 5 17 0 24 -2 18
-5z m3064 1 c-3 -3 -12 -4 -19 -1 -8 3 -5 6 6 6 11 1 17 -2 13 -5z m-4040 -10
c-3 -3 -12 -4 -19 -1 -8 3 -5 6 6 6 11 1 17 -2 13 -5z m3976 -1 c-13 -2 -33
-2 -45 0 -13 2 -3 4 22 4 25 0 35 -2 23 -4z m1182 -19 c-77 -13 -144 -22 -150
-20 -5 2 35 11 90 20 55 10 105 19 110 21 6 2 28 3 50 3 22 0 -23 -11 -100
-24z m-3398 -10 c-3 -3 -12 -4 -19 -1 -8 3 -5 6 6 6 11 1 17 -2 13 -5z m3546
-1 c-7 -2 -19 -2 -25 0 -7 3 -2 5 12 5 14 0 19 -2 13 -5z m-4717 -13 c-48 -15
-304 -52 -333 -48 -29 3 279 55 332 56 l30 0 -29 -8z m4657 3 c-7 -2 -21 -2
-30 0 -10 3 -4 5 12 5 17 0 24 -2 18 -5z m-4026 -9 c-3 -3 -12 -4 -19 -1 -8 3
-5 6 6 6 11 1 17 -2 13 -5z m-59 -11 c-10 -2 -26 -2 -35 0 -10 3 -2 5 17 5 19
0 27 -2 18 -5z m3557 -8 c-27 -7 -77 -13 -110 -13 l-60 1 85 12 c111 16 148
16 85 0z m-3645 -5 c-19 -5 -62 -11 -95 -14 l-60 -5 65 13 c36 8 79 14 95 14
29 0 29 0 -5 -8z m2537 -6 c-3 -3 -12 -4 -19 -1 -8 3 -5 6 6 6 11 1 17 -2 13
-5z m-4129 -11 c-10 -2 -26 -2 -35 0 -10 3 -2 5 17 5 19 0 27 -2 18 -5z m4070
0 c-10 -2 -26 -2 -35 0 -10 3 -2 5 17 5 19 0 27 -2 18 -5z m-81 -9 c-3 -3 -12
-4 -19 -1 -8 3 -5 6 6 6 11 1 17 -2 13 -5z m958 -20 c-14 -6 -674 -94 -694
-93 -37 3 470 81 594 92 60 5 111 6 100 1z m-4510 -30 c-82 -13 -159 -23 -170
-21 -29 4 222 45 275 45 25 0 -22 -11 -105 -24z m730 6 c-109 -19 -258 -34
-221 -23 42 12 243 41 286 41 30 0 7 -6 -65 -18z m692 14 c-3 -3 -12 -4 -19
-1 -8 3 -5 6 6 6 11 1 17 -2 13 -5z m3460 0 c-3 -3 -12 -4 -19 -1 -8 3 -5 6 6
6 11 1 17 -2 13 -5z m373 -5 c-529 -80 -1023 -144 -1058 -137 -9 2 184 35 428
74 375 61 464 72 565 72 102 0 112 -2 65 -9z m-3920 -10 c-25 -4 -56 -7 -70
-7 -23 0 -22 1 5 8 17 4 48 8 70 8 l40 -1 -45 -8z m3495 6 c-5 -3 -237 -40
-515 -84 -278 -45 -581 -95 -675 -111 -286 -52 -543 -84 -524 -66 2 2 117 20
254 40 138 20 385 61 550 91 165 29 422 70 570 90 149 20 277 38 285 39 21 5
67 5 55 1z m-1408 -11 c-3 -3 -12 -4 -19 -1 -8 3 -5 6 6 6 11 1 17 -2 13 -5z
m-3960 -10 c-3 -3 -12 -4 -19 -1 -8 3 -5 6 6 6 11 1 17 -2 13 -5z m336 -21
c-7 -2 -19 -2 -25 0 -7 3 -2 5 12 5 14 0 19 -2 13 -5z m1262 -2 c-11 -5 -47
-11 -80 -14 l-60 -6 55 13 c30 8 66 14 80 14 22 1 23 0 5 -7z m1013 4 c-6 -6
-380 -55 -412 -54 -40 1 2 10 161 34 150 22 262 31 251 20z m-1308 -24 c-40
-24 -835 -159 -1035 -176 -49 -5 -50 -5 -11 5 21 6 214 40 430 76 215 36 438
73 496 84 126 22 142 23 120 11z m5933 2 c-7 -2 -21 -2 -30 0 -10 3 -4 5 12 5
17 0 24 -2 18 -5z m-2910 -20 c-7 -2 -21 -2 -30 0 -10 3 -4 5 12 5 17 0 24 -2
18 -5z m-2490 -10 c-7 -2 -19 -2 -25 0 -7 3 -2 5 12 5 14 0 19 -2 13 -5z m-70
-10 c-7 -2 -21 -2 -30 0 -10 3 -4 5 12 5 17 0 24 -2 18 -5z m-75 -10 c-10 -2
-26 -2 -35 0 -10 3 -2 5 17 5 19 0 27 -2 18 -5z m-93 -14 c-22 -4 -53 -7 -70
-7 -26 1 -24 2 10 8 22 4 54 7 70 7 25 1 23 -1 -10 -8z m4353 -6 c-10 -2 -28
-2 -40 0 -13 2 -5 4 17 4 22 1 32 -1 23 -4z m-4493 -14 c-22 -4 -53 -7 -70 -7
-26 1 -24 2 10 8 22 4 54 7 70 7 25 1 23 -1 -10 -8z m3242 5 c-3 -3 -12 -4
-19 -1 -8 3 -5 6 6 6 11 1 17 -2 13 -5z m1178 1 c-27 -11 -484 -64 -580 -68
-146 -6 -113 -1 225 38 259 30 382 40 355 30z m-4537 -22 c-10 -2 -26 -2 -35
0 -10 3 -2 5 17 5 19 0 27 -2 18 -5z m-65 -10 c-7 -2 -21 -2 -30 0 -10 3 -4 5
12 5 17 0 24 -2 18 -5z m3894 1 c-3 -3 -12 -4 -19 -1 -8 3 -5 6 6 6 11 1 17
-2 13 -5z m-3960 -10 c-3 -3 -12 -4 -19 -1 -8 3 -5 6 6 6 11 1 17 -2 13 -5z
m3896 -1 c-7 -2 -19 -2 -25 0 -7 3 -2 5 12 5 14 0 19 -2 13 -5z m1702 -23
c-143 -16 -348 -38 -455 -49 -186 -20 -491 -28 -515 -13 -5 3 62 19 150 34
119 20 221 30 395 38 129 5 260 11 290 13 30 2 132 4 225 4 l170 1 -260 -28z
m-4620 14 c-5 -2 -107 -18 -225 -35 -198 -28 -452 -49 -440 -36 4 4 260 35
590 70 50 5 87 6 75 1z m332 0 c-3 -3 -12 -4 -19 -1 -8 3 -5 6 6 6 11 1 17 -2
13 -5z m-54 -11 c-7 -2 -19 -2 -25 0 -7 3 -2 5 12 5 14 0 19 -2 13 -5z m-60
-10 c-7 -2 -19 -2 -25 0 -7 3 -2 5 12 5 14 0 19 -2 13 -5z m-1056 -19 c-3 -3
-12 -4 -19 -1 -8 3 -5 6 6 6 11 1 17 -2 13 -5z m5538 1 c-45 -17 -260 -45
-337 -44 -109 2 -96 5 117 29 152 17 242 23 220 15z m410 0 c-32 -13 -261 -45
-311 -44 -46 1 -24 6 101 24 148 21 234 29 210 20z m-6108 -21 c-3 -3 -12 -4
-19 -1 -8 3 -5 6 6 6 11 1 17 -2 13 -5z m3853 -5 c-60 -10 -187 -10 -145 1 17
4 66 8 110 8 71 0 75 -1 35 -9z m-3572 -35 c-7 -6 -472 -74 -503 -73 -22 1
155 42 275 64 74 13 239 20 228 9z m1211 2 c-18 -18 -179 -45 -867 -146 -288
-42 -518 -63 -501 -46 3 3 845 156 1039 189 33 6 335 8 329 3z m2058 -6 c-15
-5 -58 -11 -95 -14 l-67 -5 65 13 c36 8 79 14 95 14 l30 0 -28 -8z m510 -6
c-3 -3 -12 -4 -19 -1 -8 3 -5 6 6 6 11 1 17 -2 13 -5z m708 0 c-5 -2 -239 -37
-520 -79 -280 -41 -584 -87 -675 -101 -164 -25 -340 -42 -330 -31 3 3 246 48
540 101 294 52 558 100 585 105 48 8 421 14 400 5z m480 -2 c-6 -5 -86 -19
-180 -31 -93 -12 -276 -37 -405 -56 -129 -19 -298 -44 -375 -56 -77 -11 -214
-31 -305 -45 -115 -17 -204 -24 -295 -23 -154 1 -140 6 120 44 99 14 284 41
410 60 519 77 643 96 710 104 93 11 332 13 320 3z m315 -23 c-105 -19 -307
-44 -580 -74 -80 -9 -291 -39 -470 -66 -179 -27 -336 -48 -350 -46 -31 4 -66
-2 675 112 499 77 619 93 715 93 l115 0 -105 -19z m-2655 6 c-9 -4 -698 -97
-810 -110 -33 -4 -36 -3 -15 5 21 8 301 48 685 98 71 10 158 14 140 7z m472
-1 c-3 -3 -12 -4 -19 -1 -8 3 -5 6 6 6 11 1 17 -2 13 -5z m706 -11 c-7 -2 -21
-2 -30 0 -10 3 -4 5 12 5 17 0 24 -2 18 -5z m-58 -8 c-5 -2 -226 -43 -491 -90
-479 -85 -481 -86 -630 -83 l-149 3 65 13 c36 7 243 35 460 62 217 28 460 61
540 74 128 21 234 31 205 21z m-4452 -12 c-7 -2 -19 -2 -25 0 -7 3 -2 5 12 5
14 0 19 -2 13 -5z m-48 -8 c-5 -2 -82 -15 -170 -30 -88 -14 -171 -27 -185 -30
l-25 -5 26 15 c25 13 58 20 224 44 60 9 149 13 130 6z m1040 -11 c-42 -16
-644 -114 -705 -114 -40 0 -71 2 -69 5 9 8 711 113 759 113 14 0 21 -1 15 -4z
m2080 -35 c-339 -65 -447 -80 -566 -77 l-114 3 165 23 c323 45 596 80 630 80
19 0 -32 -13 -115 -29z m3075 4 c-14 -2 -160 -27 -325 -55 -284 -48 -311 -51
-510 -54 -134 -2 -199 0 -180 6 46 14 636 91 760 100 118 8 297 10 255 3z
m-4187 -60 c-7 -2 -19 -2 -25 0 -7 3 -2 5 12 5 14 0 19 -2 13 -5z m4466 3 c-2
-2 -79 -20 -171 -40 -169 -37 -242 -44 -253 -26 -3 6 -38 10 -77 10 -39 0 -69
3 -65 6 3 3 115 16 249 29 248 23 325 28 317 21z m-4531 -13 c-10 -2 -28 -2
-40 0 -13 2 -5 4 17 4 22 1 32 -1 23 -4z m-75 -10 c-7 -2 -19 -2 -25 0 -7 3
-2 5 12 5 14 0 19 -2 13 -5z m-1796 -59 c-17 -18 -279 -54 -382 -53 l-110 1
80 15 c168 30 253 41 334 42 46 1 82 -2 78 -5z m261 0 c-8 -8 -277 -46 -297
-42 -9 2 38 13 104 25 119 21 204 28 193 17z m3040 1 c-15 -15 -284 -55 -373
-55 -90 0 -98 1 -84 16 25 25 151 42 313 43 82 1 147 -1 144 -4z m240 0 c-6
-6 -257 -45 -283 -44 -28 2 212 47 254 48 19 1 32 -1 29 -4z m470 -1 c-4 -3
-80 -16 -170 -29 -116 -18 -203 -24 -303 -23 l-140 0 185 28 c168 26 444 41
428 24z m390 1 c-8 -9 -315 -55 -356 -54 -56 1 -31 7 143 33 162 25 223 30
213 21z m847 -6 c-46 -14 -221 -27 -415 -32 -190 -6 -191 -5 -38 23 111 19
515 28 453 9z m475 1 c-141 -10 -326 -10 -280 0 19 4 114 7 210 7 163 0 168
-1 70 -7z m-5043 -6 c-3 -3 -12 -4 -19 -1 -8 3 -5 6 6 6 11 1 17 -2 13 -5z
m-280 -10 c-3 -3 -12 -4 -19 -1 -8 3 -5 6 6 6 11 1 17 -2 13 -5z m-54 -11 c-7
-2 -21 -2 -30 0 -10 3 -4 5 12 5 17 0 24 -2 18 -5z m1137 -4 c-14 -6 -74 -12
-135 -14 -60 -3 -103 -2 -95 0 17 6 177 22 225 23 30 1 30 1 5 -9z m540 0
c-19 -5 -89 -11 -155 -14 -115 -4 -118 -4 -70 9 28 8 97 14 155 14 82 0 97 -2
70 -9z m275 0 c-16 -5 -66 -11 -110 -14 l-80 -4 80 13 c44 8 94 14 110 14 l30
0 -30 -9z m330 -5 c-63 -14 -102 -18 -93 -9 8 8 88 23 123 23 18 0 7 -5 -30
-14z m-2370 -5 c-22 -4 -53 -7 -70 -7 -26 1 -24 2 10 8 22 4 54 7 70 7 25 1
23 -1 -10 -8z m2550 1 c-3 -5 -27 -9 -53 -9 -46 2 -46 2 -12 9 53 11 72 11 65
0z m2880 0 c-27 -5 -126 -8 -220 -7 -155 1 -161 1 -65 7 163 9 347 9 285 0z
m-5748 -6 c-3 -3 -12 -4 -19 -1 -8 3 -5 6 6 6 11 1 17 -2 13 -5z m750 0 c-3
-3 -12 -4 -19 -1 -8 3 -5 6 6 6 11 1 17 -2 13 -5z m2540 0 c-3 -3 -12 -4 -19
-1 -8 3 -5 6 6 6 11 1 17 -2 13 -5z m1528 -33 c-19 -17 -169 -31 -328 -30
-227 1 -165 19 98 28 110 4 209 8 220 9 11 1 15 -2 10 -7z m615 0 c-29 -16
-221 -31 -383 -30 -171 1 -178 11 -18 28 103 11 420 13 401 2z m-5910 -17
c-43 -8 -122 -13 -185 -12 l-110 3 55 11 c30 7 114 12 185 12 l130 0 -75 -14z
m1600 1 c-67 -12 -390 -20 -365 -9 26 11 173 21 300 22 l140 0 -75 -13z m345
-1 c-59 -13 -184 -19 -173 -8 10 10 101 22 168 22 l65 0 -60 -14z m215 5 c-30
-5 -68 -11 -85 -14 -18 -3 -26 -2 -20 4 13 12 49 18 110 18 l50 1 -55 -9z
m250 -5 c-90 -13 -147 -17 -139 -9 9 9 113 23 169 23 52 -1 50 -1 -30 -14z
m420 0 c-36 -7 -81 -13 -100 -12 l-35 0 40 13 c22 8 67 13 100 13 l60 0 -65
-14z m455 3 c-21 -12 -346 -25 -334 -13 14 14 102 24 224 25 106 0 126 -2 110
-12z m82 7 c-3 -3 -12 -4 -19 -1 -8 3 -5 6 6 6 11 1 17 -2 13 -5z m568 -4
c-119 -11 -370 -22 -364 -16 14 14 129 24 279 23 138 0 152 -1 85 -7z m787 0
c-29 -12 -189 -25 -180 -15 6 6 120 21 178 23 25 1 25 1 2 -8z m1733 -5 c-37
-13 -305 -22 -294 -10 12 11 123 23 224 23 105 0 108 -1 70 -13z m-5106 -40
c-7 -6 -274 -49 -494 -79 -210 -29 -353 -42 -343 -31 4 4 119 31 255 61 242
51 252 53 417 53 93 1 167 -1 165 -4z m386 -5 c-67 -30 -590 -110 -719 -110
-49 0 -87 3 -83 6 3 3 146 30 319 59 228 39 339 54 408 54 64 0 88 -3 75 -9z
m373 5 c-7 -7 -497 -77 -511 -72 -6 2 90 18 214 36 123 18 229 34 234 36 16 6
69 5 63 0z m467 -5 c-11 -5 -29 -8 -40 -8 -16 0 -15 2 5 8 34 11 60 11 35 0z
m450 -1 c-38 -11 -337 -50 -342 -45 -2 2 31 15 74 29 64 20 98 25 188 25 78 0
101 -3 80 -9z m690 0 c-30 -9 -611 -92 -735 -105 -36 -4 -62 -3 -58 0 3 4 50
21 103 37 80 23 140 32 334 49 130 11 254 21 276 23 22 2 56 4 75 4 l35 1 -30
-9z m303 5 c-8 -7 -399 -65 -412 -61 -9 3 131 29 304 56 67 11 115 13 108 5z
m430 1 c-6 -7 -623 -115 -652 -115 -50 0 12 15 255 60 145 27 275 51 289 53
38 7 114 8 108 2z m489 -1 c-5 -5 -400 -62 -697 -99 -198 -26 -290 -14 -115
14 39 6 169 29 290 50 189 34 242 39 374 40 85 1 152 -2 148 -5z m482 2 c-2
-3 -99 -14 -214 -26 -116 -11 -305 -36 -422 -55 -208 -34 -309 -44 -253 -25
14 5 153 29 310 54 157 25 296 47 310 49 34 6 274 8 269 3z m836 -6 c-24 -11
-350 -75 -485 -96 -90 -13 -611 -21 -598 -9 4 4 612 94 728 108 73 8 375 6
355 -3z m343 4 c-7 -6 -483 -75 -508 -73 -18 1 23 11 200 49 122 26 325 42
308 24z m-4199 -8 c-15 -14 -492 -106 -553 -106 -52 0 14 15 255 60 255 46
307 54 298 46z m-1631 -11 c-3 -3 -101 -26 -217 -50 -178 -38 -228 -45 -319
-44 -65 0 -99 3 -87 8 17 7 181 31 535 80 86 11 94 12 88 6z m1912 1 c0 -11
-171 -47 -285 -61 -207 -24 -196 -16 35 24 225 40 250 44 250 37z m215 -68
c-57 -19 -248 -38 -233 -24 7 9 219 43 263 44 23 0 16 -5 -30 -20z m2075 -4
c-128 -24 -189 -30 -176 -17 9 10 210 41 261 41 23 0 -15 -10 -85 -24z m-3403
10 c-3 -3 -12 -4 -19 -1 -8 3 -5 6 6 6 11 1 17 -2 13 -5z m4490 0 c-3 -3 -12
-4 -19 -1 -8 3 -5 6 6 6 11 1 17 -2 13 -5z m-4294 -11 c-7 -2 -19 -2 -25 0 -7
3 -2 5 12 5 14 0 19 -2 13 -5z m-44 -7 c-2 -2 -24 -6 -49 -9 -30 -4 -38 -3
-25 3 19 8 83 14 74 6z m-821 -46 c-35 -10 -377 -44 -384 -38 -10 11 237 46
321 46 62 0 82 -2 63 -8z m537 0 c-16 -4 -50 -8 -75 -7 l-45 0 40 7 c22 4 56
7 75 7 l35 1 -30 -8z m1263 -1 c-14 -8 -550 -88 -933 -139 -160 -21 -520 -47
-490 -34 8 3 1033 161 1150 177 68 9 290 6 273 -4z m380 6 c-9 -9 -488 -78
-488 -70 0 9 82 26 215 45 77 10 151 21 165 23 38 6 114 8 108 2z m570 0 c-7
-8 -459 -86 -471 -82 -6 2 84 20 199 41 115 21 214 39 219 41 17 6 59 5 53 0z
m280 0 c-8 -8 -380 -57 -386 -51 -3 3 1 6 9 6 8 0 75 11 149 24 124 22 240 33
228 21z m480 0 c-13 -13 -182 -35 -263 -34 -106 2 -99 5 55 23 121 15 217 20
208 11z m281 1 c-9 -10 -187 -36 -234 -35 -44 1 -38 4 50 19 94 17 194 25 184
16z m601 -7 c-107 -12 -506 -39 -564 -39 -27 0 -47 2 -44 5 3 3 63 14 134 24
95 14 184 19 339 19 166 -1 194 -3 135 -9z m1580 1 c-26 -9 -370 -60 -710
-105 -852 -112 -1036 -135 -1059 -134 -14 0 53 18 149 39 96 21 249 57 339 79
91 23 177 41 193 41 16 0 39 6 51 14 12 7 45 19 72 26 28 7 57 19 65 26 8 7
31 14 50 17 71 8 875 5 850 -3z m-5567 -17 c-7 -2 -21 -2 -30 0 -10 3 -4 5 12
5 17 0 24 -2 18 -5z m-896 -9 c-3 -3 -12 -4 -19 -1 -8 3 -5 6 6 6 11 1 17 -2
13 -5z m1650 0 c-3 -3 -12 -4 -19 -1 -8 3 -5 6 6 6 11 1 17 -2 13 -5z m-1697
-8 c0 -2 -48 -11 -107 -19 -158 -23 -207 -28 -200 -20 13 12 307 50 307 39z
m1345 -47 c-170 -26 -319 -48 -330 -48 -44 1 89 29 240 49 88 12 198 28 245
35 47 7 101 13 120 13 19 0 -104 -22 -275 -49z m4105 41 c-14 -4 -45 -8 -70
-8 -45 1 -45 1 -10 8 19 4 51 8 70 8 32 0 33 -1 10 -8z m1077 4 c-3 -3 -12 -4
-19 -1 -8 3 -5 6 6 6 11 1 17 -2 13 -5z m-1704 -11 c-13 -2 -33 -2 -45 0 -13
2 -3 4 22 4 25 0 35 -2 23 -4z m-1670 -10 c-7 -2 -19 -2 -25 0 -7 3 -2 5 12 5
14 0 19 -2 13 -5z m3254 1 c-3 -3 -12 -4 -19 -1 -8 3 -5 6 6 6 11 1 17 -2 13
-5z m-3694 -11 c-7 -2 -19 -2 -25 0 -7 3 -2 5 12 5 14 0 19 -2 13 -5z m687
-44 c-257 -46 -494 -76 -522 -67 -14 5 240 61 377 83 119 19 256 32 350 33 57
0 21 -9 -205 -49z m430 35 c-97 -17 -156 -16 -75 1 33 7 80 12 105 12 38 0 33
-2 -30 -13z m2460 1 c-80 -14 -205 -27 -180 -19 28 8 195 32 225 32 17 0 -4
-6 -45 -13z m-5547 -2 c-7 -2 -19 -2 -25 0 -7 3 -2 5 12 5 14 0 19 -2 13 -5z
m1342 -3 c-16 -4 -50 -7 -75 -7 l-45 0 45 7 c25 4 59 7 75 7 l30 1 -30 -8z
m578 3 c-7 -2 -21 -2 -30 0 -10 3 -4 5 12 5 17 0 24 -2 18 -5z m1752 -8 c-60
-7 -148 -15 -195 -18 -75 -5 -69 -3 45 13 72 10 159 18 195 17 57 0 51 -1 -45
-12z m-4470 -5 c-16 -4 -52 -7 -80 -7 l-50 0 50 7 c28 4 64 7 80 7 l30 1 -30
-8z m2660 5 c-19 -8 -391 -74 -533 -95 -275 -41 -174 -14 158 41 298 50 407
66 375 54z m-658 -11 c-3 -3 -12 -4 -19 -1 -8 3 -5 6 6 6 11 1 17 -2 13 -5z
m1736 -1 c-7 -2 -19 -2 -25 0 -7 3 -2 5 12 5 14 0 19 -2 13 -5z m1537 3 c0 -2
-51 -16 -112 -31 -246 -58 -399 -87 -523 -100 -170 -18 -457 -28 -430 -16 27
13 824 140 900 144 117 6 165 7 165 3z m-4400 -16 c-31 -11 -686 -93 -701 -88
-6 2 128 23 297 46 307 42 356 48 404 50 l25 0 -25 -8z m-362 -5 c-13 -13
-709 -105 -792 -105 -49 0 -87 3 -84 6 9 8 181 32 463 64 332 37 423 45 413
35z m2402 -35 c-63 -16 -146 -33 -185 -39 -81 -12 -444 -35 -451 -29 -2 3 81
15 184 28 103 13 259 33 347 45 216 30 242 29 105 -5z m-1030 9 c-62 -15 -575
-57 -527 -43 19 6 495 51 537 52 19 0 16 -2 -10 -9z m2495 6 c-5 -2 -172 -27
-370 -55 -246 -36 -417 -55 -540 -60 -99 -5 -223 -11 -275 -14 l-95 -6 75 15
c111 22 330 53 455 64 61 6 209 19 330 30 121 11 238 22 260 24 56 5 172 6
160 2z m-3505 -9 c0 -2 -48 -16 -107 -30 -101 -23 -438 -54 -452 -41 -2 3 2 5
10 6 8 0 124 15 259 33 259 35 290 39 290 32z m4790 -21 c-98 -20 -403 -57
-436 -53 -16 2 75 17 201 34 244 33 349 41 235 19z m-3870 -24 c-22 -13 -647
-113 -684 -109 -17 2 48 16 144 31 430 70 526 85 540 86 13 0 13 -1 0 -8z
m-1657 -18 c-7 -2 -19 -2 -25 0 -7 3 -2 5 12 5 14 0 19 -2 13 -5z m1794 1 c-3
-3 -12 -4 -19 -1 -8 3 -5 6 6 6 11 1 17 -2 13 -5z m-539 -9 c-2 -3 -119 -23
-259 -45 -213 -33 -276 -40 -394 -39 l-140 1 165 30 c103 18 243 34 370 42
257 17 264 17 258 11z m2785 -2 c-7 -2 -21 -2 -30 0 -10 3 -4 5 12 5 17 0 24
-2 18 -5z m-1420 -10 c-7 -2 -21 -2 -30 0 -10 3 -4 5 12 5 17 0 24 -2 18 -5z
m1344 1 c-3 -3 -12 -4 -19 -1 -8 3 -5 6 6 6 11 1 17 -2 13 -5z m-1582 -20
c-168 -47 -250 -55 -545 -52 -276 3 -282 3 -190 15 52 7 176 18 275 24 99 6
232 14 295 19 63 4 138 7 165 8 l50 0 -50 -14z m-2356 2 c-2 -2 -58 -9 -124
-16 -66 -6 -178 -20 -249 -31 -71 -10 -154 -18 -185 -18 -56 1 34 16 334 53
108 13 232 20 224 12z m536 -4 c-12 -10 -284 -56 -291 -49 -8 8 128 40 201 47
39 4 77 8 85 9 8 0 10 -2 5 -7z m4134 -32 c-18 -11 -237 -26 -228 -16 5 6 144
21 219 24 20 1 22 -1 9 -8z m256 -1 c-33 -9 -156 -22 -140 -14 12 6 120 22
150 23 12 0 8 -3 -10 -9z m330 0 c-16 -5 -57 -11 -90 -13 l-60 -5 70 13 c82
16 124 18 80 5z m345 1 c-104 -10 -237 -10 -190 0 19 4 87 7 150 7 110 0 112
-1 40 -7z m-5670 -16 c-66 -11 -260 -18 -220 -8 32 9 168 21 230 21 l65 0 -75
-13z m3223 9 c-7 -2 -19 -2 -25 0 -7 3 -2 5 12 5 14 0 19 -2 13 -5z m2822 -3
c-33 -4 -87 -8 -120 -7 l-60 0 65 7 c36 4 90 7 120 7 l55 0 -60 -7z m-5846 -4
c-12 -10 -60 -16 -54 -6 3 5 18 10 32 10 15 0 24 -2 22 -4z m2954 -3 c-13 -2
-33 -2 -45 0 -13 2 -3 4 22 4 25 0 35 -2 23 -4z m1110 0 c-23 -2 -64 -2 -90 0
-26 2 -7 3 42 3 50 0 71 -1 48 -3z m-4244 -43 c-33 -19 -297 -62 -404 -66 -60
-2 -105 -2 -100 0 8 4 271 48 405 69 54 9 115 7 99 -3z m446 -10 c-242 -41
-335 -51 -441 -48 l-109 3 180 31 c148 26 207 32 330 32 l150 0 -110 -18z
m334 16 c-2 -2 -33 -6 -69 -9 -41 -3 -54 -2 -35 3 31 8 112 13 104 6z m1016
-6 c-66 -4 -217 -10 -335 -13 -192 -5 -209 -4 -160 8 39 9 136 13 335 12 220
0 254 -2 160 -7z m1043 4 c-13 -12 -497 -74 -563 -72 l-70 3 160 29 c94 18
216 32 295 36 74 4 146 7 159 8 13 1 22 -1 19 -4z m515 -1 c-13 -2 -35 -2 -50
0 -16 2 -5 4 22 4 28 0 40 -2 28 -4z m462 -30 l-180 -36 -330 -3 c-321 -2
-327 -2 -235 12 204 32 567 61 745 62 l180 0 -180 -35z m285 1 c-273 -38 -379
-42 -170 -6 222 37 241 40 330 40 75 0 56 -4 -160 -34z m1200 -5 c-240 -28
-356 -38 -445 -36 l-120 2 195 32 c256 43 224 40 475 40 l220 1 -325 -39z
m-4287 24 c-7 -2 -19 -2 -25 0 -7 3 -2 5 12 5 14 0 19 -2 13 -5z m2224 1 c-3
-3 -12 -4 -19 -1 -8 3 -5 6 6 6 11 1 17 -2 13 -5z m-2289 -11 c-10 -2 -28 -2
-40 0 -13 2 -5 4 17 4 22 1 32 -1 23 -4z m-80 -10 c-10 -2 -26 -2 -35 0 -10 3
-2 5 17 5 19 0 27 -2 18 -5z m1347 2 c-35 -14 -264 -45 -321 -44 l-69 1 55 9
c206 31 371 48 335 34z m2600 0 c-37 -15 -266 -45 -331 -44 l-79 1 90 14 c163
26 358 43 320 29z m-1807 -12 c-10 -2 -28 -2 -40 0 -13 2 -5 4 17 4 22 1 32
-1 23 -4z m-1533 -13 c-123 -13 -440 -23 -432 -14 10 10 195 21 372 21 111 0
120 -1 60 -7z m1395 -6 c-41 -7 -97 -12 -125 -12 -43 1 -38 2 35 13 118 17
189 17 90 -1z m1358 -11 c-10 -2 -26 -2 -35 0 -10 3 -2 5 17 5 19 0 27 -2 18
-5z m1295 0 c-7 -2 -21 -2 -30 0 -10 3 -4 5 12 5 17 0 24 -2 18 -5z m-3818
-49 c-67 -12 -274 -20 -263 -9 11 11 127 23 228 23 l105 0 -70 -14z m345 5
c-25 -4 -61 -7 -80 -7 l-35 0 30 8 c17 4 53 8 80 8 l50 -1 -45 -8z m410 -5
c-79 -12 -238 -18 -215 -8 25 10 137 22 215 21 l85 0 -85 -13z m720 0 c-107
-12 -589 -20 -579 -9 16 15 148 23 404 23 l290 -1 -115 -13z m750 6 c-78 -14
-225 -23 -217 -14 11 12 95 21 187 21 67 0 70 0 30 -7z m370 -1 c-91 -13 -256
-22 -247 -13 13 13 87 21 197 22 92 0 98 -1 50 -9z m310 -5 c-106 -14 -187
-17 -177 -7 13 12 83 21 177 20 l95 0 -95 -13z m390 0 c-62 -13 -239 -20 -228
-9 10 10 124 23 208 23 l85 0 -65 -14z m1215 0 c-49 -7 -252 -36 -450 -64
l-359 -50 -271 1 c-238 2 -257 3 -160 11 109 8 234 39 247 61 4 7 67 22 140
33 120 20 172 22 538 22 380 0 399 -1 315 -14z m-5145 -5 c-25 -4 -76 -7 -115
-7 -69 1 -69 1 -20 8 28 4 79 7 115 7 63 0 64 0 20 -8z m-370 -39 c-19 -5 -73
-11 -120 -14 l-85 -5 60 13 c33 8 87 14 120 14 53 0 56 -1 25 -8z m758 5 c-11
-12 -121 -25 -359 -44 -140 -12 -276 -23 -304 -27 -27 -3 -47 -3 -44 1 5 4
211 36 444 68 44 6 269 8 263 2z m700 -1 c-8 -7 -570 -90 -708 -105 -58 -6
-130 -9 -160 -7 -49 3 -42 5 70 21 69 10 242 35 385 57 230 34 429 51 413 34z
m620 0 c-19 -19 -929 -96 -945 -80 -4 3 2 6 13 6 10 0 136 18 279 39 232 35
282 39 459 40 110 1 197 -2 194 -5z m798 -1 c-4 -5 -101 -23 -214 -41 -160
-25 -249 -34 -392 -37 -102 -3 -180 -3 -175 0 6 2 91 15 190 29 154 21 269 32
515 49 25 2 54 4 64 5 11 1 16 -1 12 -5z m314 -2 c-8 -5 -42 -12 -75 -15 -33
-4 -145 -18 -248 -32 -104 -14 -198 -24 -210 -22 -27 4 446 73 518 76 21 1 26
-1 15 -7z m365 0 c-15 -13 -491 -71 -575 -70 -65 1 -46 5 140 30 192 26 348
44 420 48 14 0 20 -3 15 -8z m522 3 c-7 -7 -359 -56 -364 -50 -2 2 27 11 64
20 38 10 75 21 83 26 16 10 227 14 217 4z m-4542 -9 c-22 -9 -554 -95 -615
-100 -122 -10 -37 8 269 56 274 42 376 55 346 44z m182 -1 c-3 -3 -12 -4 -19
-1 -8 3 -5 6 6 6 11 1 17 -2 13 -5z m4688 -9 c-22 -8 -60 -13 -85 -13 -43 0
-43 1 20 13 85 16 115 16 65 0z m1003 10 c-7 -7 -237 -37 -257 -33 -9 2 34 11
94 20 117 17 171 21 163 13z m-5863 -36 c-77 -16 -156 -28 -175 -26 -21 1 26
13 115 28 199 36 235 34 60 -2z m4085 4 c-69 -18 -130 -26 -220 -28 l-125 -4
190 28 c235 35 278 36 155 4z m1477 -9 c-3 -3 -12 -4 -19 -1 -8 3 -5 6 6 6 11
1 17 -2 13 -5z m-4790 -30 c-3 -3 -12 -4 -19 -1 -8 3 -5 6 6 6 11 1 17 -2 13
-5z m1513 -5 c-25 -4 -79 -7 -120 -6 l-75 1 70 6 c39 4 93 7 120 7 l50 0 -45
-8z m-1680 -24 c-106 -19 -171 -23 -305 -23 -204 1 -166 10 110 28 105 7 192
14 194 16 2 2 34 3 70 3 63 -1 61 -2 -69 -24z m4315 7 c-6 -5 -98 -21 -205
-36 -181 -25 -218 -26 -515 -25 l-320 1 130 25 c118 23 164 26 490 32 198 4
376 8 395 9 19 1 30 -2 25 -6z m550 -1 c-6 -5 -80 -21 -166 -35 -123 -21 -187
-26 -305 -25 l-149 1 190 24 c157 20 287 33 420 43 11 0 15 -3 10 -8z m-2837
-6 c-14 -14 -338 -53 -473 -58 -82 -3 -145 -3 -140 -1 48 17 289 49 410 54 83
4 163 7 179 8 16 1 27 0 24 -3z m422 -26 c-119 -17 -234 -28 -295 -27 l-100 0
200 28 c110 15 243 27 295 27 l95 1 -195 -29z m670 25 c-62 -14 -479 -54 -562
-53 l-103 1 195 28 c139 20 236 27 340 28 80 0 138 -2 130 -4z m2285 -25
c-169 -25 -216 -28 -425 -27 l-235 0 145 28 c137 27 160 28 425 28 l280 0
-190 -29z m-4066 7 c-11 -11 -552 -77 -704 -86 -381 -23 -708 -40 -711 -37 -2
2 112 16 254 31 141 15 358 39 482 52 273 31 695 55 679 40z m1786 -26 c-16
-4 -55 -7 -85 -7 l-55 0 50 7 c28 4 66 7 85 7 l35 1 -30 -8z m-2920 -15 c-86
-16 -509 -59 -526 -53 -6 2 73 16 177 31 239 35 233 34 334 34 l85 1 -70 -13z
m-1527 -2 c-10 -2 -28 -2 -40 0 -13 2 -5 4 17 4 22 1 32 -1 23 -4z m887 -3
c-37 -16 -720 -102 -789 -99 -27 2 -28 2 -6 6 14 3 122 23 240 45 172 33 249
42 385 48 94 3 175 7 180 8 6 0 1 -3 -10 -8z m-572 -27 c-7 -2 -19 -2 -25 0
-7 3 -2 5 12 5 14 0 19 -2 13 -5z m2456 2 c-7 -7 -636 -102 -755 -114 -55 -6
-129 -17 -165 -25 -80 -19 -292 -51 -468 -71 -145 -16 -590 -32 -580 -21 14
15 412 67 584 76 232 12 518 48 933 116 130 21 220 30 431 43 13 0 22 -1 20
-4z m521 -1 c-8 -2 -118 -20 -244 -39 -290 -44 -508 -67 -611 -63 l-80 3 155
24 c355 54 568 79 680 79 63 0 108 -2 100 -4z m235 -10 c-151 -16 -215 -16
-115 1 41 7 111 12 155 12 79 1 79 0 -40 -13z m485 -20 c-144 -25 -248 -36
-395 -43 -110 -6 -231 -13 -270 -17 -216 -21 116 31 510 80 61 8 164 14 230
14 l120 0 -195 -34z m975 31 c-5 -2 -120 -17 -255 -34 -232 -28 -674 -52 -658
-35 4 3 76 21 160 39 l153 33 305 0 c168 0 301 -1 295 -3z m485 -25 c-145 -22
-219 -28 -430 -32 -140 -3 -249 -3 -241 0 8 2 111 17 230 32 171 22 257 28
416 28 l200 0 -175 -28z m775 25 c-54 -20 -680 -68 -664 -51 4 4 62 18 130 31
105 20 156 23 334 23 116 0 206 -1 200 -3z m240 -16 c-55 -10 -147 -20 -205
-23 -58 -2 -94 -2 -80 0 71 14 291 41 335 42 41 0 33 -3 -50 -19z m-5508 -15
c-3 -3 -12 -4 -19 -1 -8 3 -5 6 6 6 11 1 17 -2 13 -5z m1188 -4 c-18 -8 -190
-34 -477 -71 -48 -6 -93 -9 -100 -7 -11 4 272 47 477 73 123 16 125 16 100 5z
m-435 -26 c-8 -2 -123 -20 -254 -39 -227 -33 -253 -35 -485 -34 -273 2 -265 4
104 39 303 28 694 49 635 34z m-1673 -20 c-3 -3 -12 -4 -19 -1 -8 3 -5 6 6 6
11 1 17 -2 13 -5z m2910 -10 c-3 -3 -12 -4 -19 -1 -8 3 -5 6 6 6 11 1 17 -2
13 -5z m2048 -4 c-16 -4 -142 -7 -280 -7 -137 0 -225 3 -195 7 77 9 512 9 475
0z m268 3 c-13 -2 -33 -2 -45 0 -13 2 -3 4 22 4 25 0 35 -2 23 -4z m-2375 -10
c-10 -2 -28 -2 -40 0 -13 2 -5 4 17 4 22 1 32 -1 23 -4z m1230 0 c-32 -2 -86
-2 -120 0 -35 2 -9 3 57 3 66 0 94 -1 63 -3z m-2013 -44 c-22 -4 -53 -8 -70
-7 -29 1 -29 1 5 8 19 4 51 7 70 8 l35 0 -40 -9z m514 7 c-2 -2 -33 -6 -69 -9
-41 -3 -54 -2 -35 3 31 8 112 13 104 6z m1141 -12 c-119 -16 -162 -16 -95 1
28 7 82 13 120 13 l70 0 -95 -14z m875 5 c-33 -4 -177 -10 -320 -13 -236 -4
-253 -4 -190 8 47 9 153 14 320 13 168 0 230 -3 190 -8z m1005 -5 c-71 -12
-439 -20 -428 -9 13 14 140 23 313 23 188 -1 189 -1 115 -14z m445 5 c-44 -10
-327 -22 -309 -14 29 14 111 23 224 23 96 0 116 -2 85 -9z m-5100 -19 c-11 -5
-117 -23 -235 -40 -190 -27 -240 -30 -430 -29 l-215 1 165 29 c91 16 197 33
235 38 94 11 506 12 480 1z m1003 3 c-10 -2 -26 -2 -35 0 -10 3 -2 5 17 5 19
0 27 -2 18 -5z m475 0 c-7 -2 -21 -2 -30 0 -10 3 -4 5 12 5 17 0 24 -2 18 -5z
m910 0 c-7 -2 -21 -2 -30 0 -10 3 -4 5 12 5 17 0 24 -2 18 -5z m-1218 -14
c-22 -4 -58 -7 -80 -7 l-40 1 45 7 c25 4 61 7 80 7 l35 1 -40 -9z m895 0 c-45
-11 -347 -24 -338 -14 6 6 220 21 328 22 l45 1 -35 -9z m-521 -73 c-9 -10
-640 -56 -739 -55 -195 2 320 56 549 58 107 0 192 -1 190 -3z m391 -2 c-41
-10 -753 -94 -758 -90 -3 4 0 6 6 6 6 0 103 14 214 30 235 35 431 58 503 58
28 0 43 -2 35 -4z m325 -5 c-67 -14 -854 -100 -888 -97 -44 4 783 106 863 106
60 0 62 -1 25 -9z m740 6 c-5 -3 -80 -16 -165 -30 -118 -19 -191 -25 -309 -25
-85 0 -152 3 -149 6 7 7 500 51 578 52 30 0 51 -1 45 -3z m799 -22 l-26 -28
-441 -3 c-243 -1 -438 0 -435 3 3 4 69 17 145 30 124 21 171 23 460 24 l322 1
-25 -27z m245 23 c-7 -8 -210 -38 -215 -33 -12 12 87 35 150 36 38 1 67 -1 65
-3z m400 0 c-21 -19 -469 -63 -469 -45 0 13 254 47 359 48 63 0 112 -1 110 -3z
m340 0 c-5 -5 -277 -42 -368 -50 -102 -9 -61 7 77 31 110 18 303 31 291 19z
m381 0 c0 -2 -62 -13 -137 -24 -142 -22 -333 -34 -333 -22 0 10 287 47 383 49
48 0 87 -1 87 -3z m175 -5 c-11 -19 -255 -59 -255 -42 0 5 127 31 253 50 5 0
6 -3 2 -8z m275 -7 c-80 -16 -266 -37 -282 -32 -6 2 13 14 43 25 44 17 76 21
179 21 l125 0 -65 -14z m-5137 -21 c-13 -2 -33 -2 -45 0 -13 2 -3 4 22 4 25 0
35 -2 23 -4z m-95 -10 c-10 -2 -28 -2 -40 0 -13 2 -5 4 17 4 22 1 32 -1 23 -4z
m642 -43 c-95 -15 -174 -18 -460 -18 -446 1 -390 16 95 27 529 11 500 12 365
-9z m-1417 3 c-7 -2 -19 -2 -25 0 -7 3 -2 5 12 5 14 0 19 -2 13 -5z m2892 -5
c-16 -6 -118 -12 -225 -13 -107 -2 -184 -1 -170 1 57 10 222 21 320 22 85 0
99 -2 75 -10z m1030 -1 c-20 -7 -186 -12 -495 -13 -402 -2 -456 0 -400 11 87
17 941 19 895 2z m651 2 c-10 -7 -85 -13 -170 -14 -160 -4 -157 0 14 14 160
13 179 13 156 0z m449 -1 c-12 -7 -84 -13 -190 -14 -93 -2 -163 -1 -155 1 36
11 163 23 260 23 84 1 101 -1 85 -10z m812 1 c-11 -6 -47 -13 -80 -15 l-62 -3
65 13 c85 18 100 19 77 5z m-252 -9 c-11 -5 -42 -8 -70 -8 l-50 1 55 7 c79 10
88 10 65 0z m-5342 -7 c-13 -2 -33 -2 -45 0 -13 2 -3 4 22 4 25 0 35 -2 23 -4z
m717 -49 c-98 -13 -709 -20 -697 -7 17 16 108 21 437 20 332 0 349 -1 260 -13z
m518 9 c-10 -2 -26 -2 -35 0 -10 3 -2 5 17 5 19 0 27 -2 18 -5z m1017 -9 c-61
-10 -155 -13 -290 -12 -185 3 -195 4 -135 14 36 6 166 12 290 12 l225 0 -90
-14z m900 0 c-194 -17 -801 -15 -715 2 36 8 197 12 460 11 l405 0 -150 -13z
m770 5 c-62 -11 -512 -24 -504 -15 13 13 168 23 359 23 141 0 181 -2 145 -8z
m484 -4 c-8 -7 -693 -121 -929 -154 -297 -42 -360 -49 -555 -60 -93 -6 -255
-15 -358 -22 -104 -6 -190 -9 -193 -7 -2 3 38 10 89 17 50 6 379 52 729 102
488 68 699 94 900 108 308 22 323 22 317 16z m731 -31 c-87 -16 -136 -14 -80
3 19 6 62 11 95 11 l60 0 -75 -14z m275 -10 c-71 -13 -157 -23 -190 -23 -60 1
-60 1 50 24 62 13 145 23 190 23 l80 0 -130 -24z m-4268 0 c-14 -14 -606 -83
-702 -82 -127 1 -126 1 280 47 336 39 434 47 422 35z m830 0 c-7 -7 -147 -27
-384 -54 -166 -20 -574 -39 -563 -27 3 3 111 21 240 41 129 19 246 37 260 39
41 7 454 7 447 1z m691 1 c-3 -3 -92 -12 -199 -20 -517 -39 -601 -45 -694 -49
-96 -5 -92 -4 70 19 94 13 213 31 265 39 91 13 570 23 558 11z m2320 -11 c-8
-7 -269 -45 -288 -41 -8 1 53 14 135 27 145 25 165 26 153 14z m-555 -81 c-7
-2 -21 -2 -30 0 -10 3 -4 5 12 5 17 0 24 -2 18 -5z m-76 -9 c-3 -3 -12 -4 -19
-1 -8 3 -5 6 6 6 11 1 17 -2 13 -5z"/>
<path d="M3780 9109 c-86 -11 -227 -42 -213 -46 12 -4 315 46 322 53 6 5 -32
3 -109 -7z"/>
<path d="M9260 4120 c-96 -10 -249 -26 -340 -34 -907 -87 -899 -86 -655 -80
105 3 244 11 310 19 178 21 310 34 400 39 68 4 60 2 -50 -14 l-130 -19 105 5
c257 12 473 46 590 93 23 9 22 10 -15 9 -22 0 -119 -9 -215 -18z m-137 -47
c-13 -2 -33 -2 -45 0 -13 2 -3 4 22 4 25 0 35 -2 23 -4z"/>
</g>
</svg>
